<?xml version="1.0" encoding="utf-8"?>
<!-- Generator: Adobe Illustrator 27.5.0, SVG Export Plug-In . SVG Version: 6.00 Build 0)  -->
<svg version="1.1" id="Capa_1" xmlns="http://www.w3.org/2000/svg" xmlns:xlink="http://www.w3.org/1999/xlink" x="0px" y="0px"
	 width="107.3px" height="156.9px" viewBox="0 0 107.3 156.9" style="enable-background:new 0 0 107.3 156.9;" xml:space="preserve"
	>
<style type="text/css">
	.st0{fill:#36562F;}
	.st1{fill:#6FAD61;}
	.st2{fill:none;stroke:#FFFFFF;stroke-width:1.7959;stroke-miterlimit:10;}
	.st3{fill:none;stroke:#FFFFFF;stroke-width:1.0827;stroke-miterlimit:10;}
	
		.st4{clip-path:url(#SVGID_00000127014667742757172230000016944588421058663851_);fill:none;stroke:#FFFFFF;stroke-width:1.7959;stroke-miterlimit:10;}
	.st5{fill:#FFFFFF;}
	.st6{font-family:'ChangaOne';}
	.st7{font-size:29.0311px;}
</style>
<g>
	<g>
		<path class="st0" d="M77.5,134.2l-61.9,18.5c-6.9,2.1-13.2-2.6-13.2-9.8V34.1c0-5.8,4.1-11.3,9.7-12.9l67-20
			c4.3-1.3,8.2,1.6,8.2,6v114C87.2,127,83,132.5,77.5,134.2z"/>
		<path class="st1" d="M95.5,157.1H9.8c-5,0-9.1-4.1-9.1-9.1V32.7c0-5,4.1-9.1,9.1-9.1h85.7c5.9,0,10.7,4.8,10.7,10.7v112
			C106.2,152.3,101.4,157.1,95.5,157.1z"/>
		<g>
			<g>
				<circle class="st2" cx="53.5" cy="73.9" r="33.1"/>
				<ellipse class="st3" cx="53.5" cy="73.9" rx="12" ry="33.1"/>
				<line class="st2" x1="20.4" y1="73.9" x2="86.6" y2="73.9"/>
				<g>
					<defs>
						<circle id="SVGID_1_" cx="53.5" cy="73.9" r="33.1"/>
					</defs>
					<clipPath id="SVGID_00000171718901149288050520000016410159867589638815_">
						<use xlink:href="#SVGID_1_"  style="overflow:visible;"/>
					</clipPath>
					
						<circle style="clip-path:url(#SVGID_00000171718901149288050520000016410159867589638815_);fill:none;stroke:#FFFFFF;stroke-width:1.7959;stroke-miterlimit:10;" cx="52.4" cy="29.8" r="33.1"/>
					
						<circle style="clip-path:url(#SVGID_00000171718901149288050520000016410159867589638815_);fill:none;stroke:#FFFFFF;stroke-width:1.7959;stroke-miterlimit:10;" cx="53.6" cy="118.2" r="33.1"/>
				</g>
			</g>
			<g>
				<text transform="matrix(1 0 0 1 23.0059 134.7023)" class="st5 st6 st7">VISA</text>
			</g>
		</g>
	</g>
</g>
</svg>
