<?xml version="1.0" encoding="utf-8"?>
<!-- Generator: Adobe Illustrator 27.5.0, SVG Export Plug-In . SVG Version: 6.00 Build 0)  -->
<svg version="1.1" id="Capa_1" xmlns="http://www.w3.org/2000/svg" xmlns:xlink="http://www.w3.org/1999/xlink" x="0px" y="0px"
	 width="176.3px" height="123.9px" viewBox="0 0 176.3 123.9" style="enable-background:new 0 0 176.3 123.9;" xml:space="preserve"
	>
<style type="text/css">
	.st0{fill:#36562F;}
	.st1{fill:#6FAD61;}
	.st2{fill:#FFFFFF;}
	.st3{fill:none;stroke:#FFFFFF;stroke-width:0.7532;stroke-miterlimit:10;stroke-dasharray:5.2727;}
</style>
<g>
	<g>
		<g>
			<g>
				<polygon class="st0" points="89.9,124.2 45.4,100.6 45.4,14 89.9,37.6 				"/>
				<polygon class="st1" points="1,124.2 45.4,100.6 45.4,14 1,37.6 				"/>
			</g>
			<g>
				<polygon class="st0" points="178.8,124.2 134.3,100.6 134.3,14 178.8,37.6 				"/>
				<polygon class="st1" points="89.9,124.2 134.3,100.6 134.3,14 89.9,37.6 				"/>
			</g>
		</g>
		<path class="st2" d="M16.8,67.1c-8.3,0-15.1,6.7-15.1,15.1s15.1,26,15.1,26s15.1-17.7,15.1-26S25.1,67.1,16.8,67.1z M16.8,89.4
			c-4.4,0-8-3.6-8-8c0-4.4,3.6-8,8-8s8,3.6,8,8C24.8,85.8,21.2,89.4,16.8,89.4z"/>
		<path class="st2" d="M134.3,0.8c-8.3,0-15.1,6.7-15.1,15.1s15.1,26,15.1,26s15.1-17.7,15.1-26S142.6,0.8,134.3,0.8z M134.3,23.1
			c-4.4,0-8-3.6-8-8c0-4.4,3.6-8,8-8c4.4,0,8,3.6,8,8C142.3,19.6,138.7,23.1,134.3,23.1z"/>
		<path class="st3" d="M16.8,108.1c0,0,18.5-37.3,30.1-42.2s30.5,37.7,44,34.9c13.6-2.9,43.4-22.7,43.4-22.7s27.4,11.5,31.6-0.2
			s-31.6-36.2-31.6-36.2"/>
	</g>
</g>
</svg>
