<?xml version="1.0" encoding="utf-8"?>
<!-- Generator: Adobe Illustrator 27.5.0, SVG Export Plug-In . SVG Version: 6.00 Build 0)  -->
<svg version="1.1" id="Capa_1" xmlns="http://www.w3.org/2000/svg" xmlns:xlink="http://www.w3.org/1999/xlink" x="0px" y="0px"
	 width="148.5px" height="116.5px" viewBox="0 0 148.5 116.5" style="enable-background:new 0 0 148.5 116.5;" xml:space="preserve"
	>
<style type="text/css">
	.st0{fill:none;}
	.st1{fill:#121448;}
</style>
<rect x="0.1" y="-2.6" class="st0" width="148.9" height="118.3"/>
<g>
	<g>
		<path class="st1" d="M105.9,2.4c0,0.1,0,0.2,0,0.3c0,5.1,0,10.2,0,15.2c0,0.3-0.1,0.4-0.4,0.4c-7.3,0-14.7,0-22,0
			c-0.2,0-0.3,0-0.5,0c0.6-0.4,1.1-0.7,1.6-1.1c0.2-0.2,0.5-0.3,0.7-0.5c0.1-0.1,0.2-0.2,0.3-0.3c0.4-0.3,0.9-0.4,1.2-0.9
			c0.1-0.2,0.4-0.2,0.6-0.3c0.5-0.3,0.9-0.7,1.4-1c0.2-0.2,0.5-0.3,0.7-0.4c0.4-0.3,0.7-0.5,1.1-0.8c0.2-0.1,0.4-0.2,0.5-0.3
			c0.2-0.2,0.4-0.4,0.6-0.6c0,0,0.1-0.1,0.1-0.1c0.3,0,0.5-0.2,0.7-0.5c0,0,0.1-0.1,0.1-0.1c0.2-0.1,0.4-0.2,0.6-0.3
			c0.3-0.2,0.6-0.4,0.9-0.6c0.5-0.3,0.9-0.7,1.4-1.1c0.2-0.1,0.4-0.2,0.6-0.4c0.4-0.3,0.7-0.6,1.1-0.8c0.2-0.1,0.3-0.2,0.5-0.3
			c0.4-0.1,0.5-0.6,1-0.7c0.2,0,0.3-0.3,0.4-0.4c0,0,0.1-0.1,0.1-0.1c0.2-0.1,0.3-0.2,0.5-0.3c0.5-0.4,1-0.7,1.5-1
			c0.4-0.3,0.7-0.7,1.2-0.8c0.2,0,0.3-0.3,0.5-0.4c0.1,0,0.1-0.1,0.2-0.1c0.3-0.2,0.7-0.5,1-0.7c0,0,0.1-0.1,0.1-0.1
			c0.2-0.1,0.4-0.2,0.6-0.3C105.1,3,105.5,2.7,105.9,2.4z"/>
		<path class="st1" d="M60.2,34.1c0.3-0.2,0.7-0.4,1-0.6c0.4-0.3,0.7-0.5,1-0.8c0,0,0.1,0,0.1-0.1c0.5,0,0.7-0.5,1.1-0.7
			c0,0,0-0.1,0.1-0.1c0.2-0.1,0.4-0.2,0.6-0.3c0.4-0.3,0.7-0.5,1-0.8c0.2-0.1,0.5-0.2,0.7-0.4c0.5-0.3,0.9-0.7,1.4-1.1
			c0.2-0.1,0.4-0.2,0.6-0.4c0.4-0.3,0.8-0.4,1.1-0.8c0.2-0.3,0.6-0.4,0.9-0.6c0.4-0.3,0.8-0.4,1.1-0.8c0.1-0.2,0.4-0.2,0.6-0.4
			c0.5-0.3,0.9-0.7,1.4-1.1c0.2-0.1,0.4-0.2,0.6-0.4c0.4-0.3,0.7-0.6,1.1-0.8c0.1-0.1,0.3-0.2,0.5-0.3c0.2-0.1,0.4-0.2,0.5-0.4
			c0.3-0.3,0.8-0.4,1-0.8c0.5,0,0.7-0.6,1.2-0.7c0.1,0,0.2-0.2,0.3-0.2c0.5-0.4,1-0.6,1.4-1.1c0.1-0.2,0.5-0.2,0.6-0.4
			c0.3-0.3,0.8-0.3,1.1-0.8c0.1-0.2,0.4-0.3,0.6-0.4c0.2-0.2,0.4-0.3,0.7-0.5c0,0.2,0.1,0.4,0.1,0.7c0,3.2,0,6.5,0,9.7
			c0,0.2-0.1,0.4,0.2,0.6c0,0,0.1,0.2,0.1,0.3c0,1.5,0,3,0,4.5c0,0.2-0.1,0.3-0.3,0.3c-2.5,0-5,0-7.6,0c-0.1,0-0.3-0.1-0.4-0.2
			c-0.1,0-0.3-0.1-0.5-0.1c-4.5,0-9,0-13.5,0c-0.1,0-0.3,0-0.4,0C60.2,34.2,60.2,34.2,60.2,34.1z"/>
		<path class="st1" d="M36.9,50.6c0.3-0.2,0.6-0.4,0.9-0.7c0.4-0.3,0.7-0.5,1.1-0.8c0.2-0.1,0.4-0.2,0.6-0.3
			c0.2-0.1,0.3-0.2,0.4-0.3c0.3-0.3,0.7-0.5,1-0.8c0.2-0.1,0.4-0.2,0.6-0.3c0.4-0.3,0.7-0.6,1.1-0.8c0.2-0.1,0.4-0.2,0.6-0.4
			c0.2-0.1,0.3-0.3,0.5-0.4c0.2-0.1,0.5-0.3,0.7-0.4c0.4-0.3,0.7-0.6,1.1-0.8c0.4-0.2,0.6-0.4,0.9-0.6c0.4-0.3,0.7-0.6,1.1-0.9
			c0.2-0.1,0.4-0.2,0.6-0.3c0.4-0.3,0.8-0.6,1.2-0.9c0.4-0.3,0.7-0.6,1.1-0.8c0.5-0.2,0.9-0.7,1.4-0.9c0.1-0.1,0.3-0.2,0.4-0.3
			c0.3-0.3,0.8-0.4,1.1-0.8c0.3-0.3,0.8-0.5,1.2-0.7c0.3-0.2,0.5-0.4,0.7-0.6c0.1-0.1,0.2-0.1,0.3-0.2c0.2-0.1,0.3-0.2,0.5-0.3
			c0.3-0.2,0.5-0.4,0.8-0.6c0.4-0.3,0.7-0.7,1.1-0.8c0.4-0.1,0.6-0.5,1-0.6c0,0,0,0,0,0c0.1-0.1,0.3-0.2,0.4-0.2
			c0,0.2,0.1,0.4,0.1,0.6c0,4.9,0,9.8,0,14.7c0,0.5,0,0.5-0.5,0.5c-7.2,0-14.5,0-21.7,0C37.2,50.7,37,50.7,36.9,50.6
			C36.9,50.6,36.9,50.6,36.9,50.6z"/>
		<path class="st1" d="M72,42.5c0.3-0.2,0.7-0.4,0.9-0.6c0.3-0.3,0.9-0.4,1.1-0.8c0.7-0.1,0.9-0.8,1.5-1c0.1,0,0.2-0.2,0.3-0.3
			c0.3-0.3,0.7-0.5,1.1-0.8c0.2-0.1,0.4-0.2,0.6-0.3c0.2-0.1,0.4-0.3,0.6-0.5c0,0,0.1-0.1,0.2-0.1c0.3,0,0.5-0.3,0.7-0.5
			c0.3-0.2,0.6-0.5,1-0.7c0.3-0.1,0.5-0.3,0.7-0.5c0.1-0.2,0.4-0.2,0.6-0.4c0.1-0.1,0.2-0.2,0.4-0.3c0.3-0.2,0.6-0.4,0.8-0.6
			c0.4-0.3,0.7-0.6,1.1-0.8c0.2-0.1,0.4-0.2,0.6-0.3c0.2-0.1,0.3-0.3,0.5-0.4c0,0,0.1-0.1,0.1-0.1c0.2-0.1,0.5-0.2,0.6-0.4
			c0.2-0.3,0.6-0.3,0.8-0.5c0.4-0.4,0.9-0.7,1.4-1.1c0.2-0.2,0.5-0.2,0.7-0.4c0.3-0.3,0.8-0.3,1.1-0.8c0.1-0.2,0.4-0.2,0.5-0.3
			c0.2-0.2,0.4-0.4,0.6-0.5c0,0,0.1-0.1,0.1-0.1c0.3,0,0.5-0.3,0.7-0.5c0,0,0,0,0-0.1c0.4-0.2,0.8-0.4,1.2-0.7
			c0.1-0.1,0.3-0.2,0.4-0.3c0.2-0.3,0.5-0.6,0.9-0.6c0.1,0,0.3-0.2,0.4-0.3c0.1-0.1,0.2-0.1,0.3-0.2c0,0.1,0.1,0.2,0.1,0.3
			c0,0.4,0,0.9,0,1.3c0,1.6,0,3.3,0,4.9c0,2.9,0,5.8,0,8.7c0,0.5,0,0.5-0.5,0.5c-7.2,0-14.5,0-21.7,0C72.4,42.6,72.2,42.6,72,42.5
			C72,42.6,72,42.5,72,42.5z"/>
		<path class="st1" d="M117.7,10.7c0,0.2,0.1,0.3,0.1,0.5c0,1.5,0,3.1,0,4.6c0,0.2-0.1,0.5,0.2,0.7c0.1,0,0,0.2,0,0.3
			c0,3.1,0,6.2,0,9.3c0,0.3-0.1,0.4-0.4,0.4c-2.2,0-4.5,0-6.7,0c-2.5,0-5,0-7.5,0c-2.5,0-5,0-7.6,0c-0.1,0-0.3,0-0.4-0.1
			c0.2-0.2,0.3-0.5,0.7-0.5c0.1,0,0.3-0.2,0.4-0.3c0.2-0.3,0.4-0.5,0.7-0.5c0.1,0,0.2-0.2,0.3-0.2c0.3-0.3,0.7-0.5,1-0.8
			c0,0,0.1,0,0.1-0.1c0.2-0.1,0.4-0.2,0.5-0.3c0.5-0.4,1.1-0.6,1.5-1.1c0.1-0.2,0.4-0.2,0.6-0.3c0.4-0.3,0.8-0.5,1.1-0.8
			c0.1-0.1,0.3-0.2,0.5-0.3c0.2-0.2,0.4-0.4,0.6-0.6c0,0,0.1,0,0.1-0.1c0.2-0.1,0.4-0.2,0.6-0.3c0.3-0.3,0.8-0.4,1.1-0.8
			c0.1-0.2,0.4-0.3,0.6-0.4c0.1-0.1,0.3-0.2,0.4-0.3c0.3-0.3,0.7-0.5,1-0.8c0.2-0.1,0.5-0.2,0.7-0.4c0.5-0.3,0.9-0.7,1.4-1.1
			c0.2-0.1,0.4-0.2,0.6-0.4c0.4-0.3,0.7-0.6,1.1-0.8c0.2-0.1,0.5-0.2,0.7-0.4c0.5-0.3,0.9-0.7,1.4-1.1c0.2-0.1,0.5-0.2,0.7-0.3
			c0.4-0.2,0.7-0.5,1.1-0.8c0.2-0.1,0.4-0.2,0.6-0.3c0.1-0.1,0.2-0.2,0.4-0.3c0.3-0.3,0.7-0.5,1.1-0.8c0.2-0.1,0.4-0.2,0.6-0.3
			C117.5,11,117.5,10.9,117.7,10.7z"/>
		<path class="st1" d="M33.7,64.9c0-2.2,0-4.5,0-6.7c0-0.3,0.1-0.4,0.4-0.4c0.8,0,1.6,0,2.4,0c0.2,0,0.3,0.1,0.4,0.3
			c0.1,0.3,0.3,0.6,0.5,0.9c0,0,0,0.1,0,0.1c0.1,0.4,0.1,0.8,0.3,1.1c0.2,0.3,0.2,0.7,0.4,1c0.2,0.4,0.4,0.8,0.5,1.3
			c0.1,0.4,0.3,0.7,0.5,1.1c0.1,0.3,0.2,0.7,0.4,1c0,0.1,0,0.1,0,0.2c0.2,0.3,0.3,0.6,0.5,0.9c0,0.1,0,0.2,0.1,0.2
			c0,0.2,0.1,0.4,0.2,0.7c0.2,0.3,0.2,0.7,0.4,1c0,0.1,0.1,0.2,0.2,0.3c0,0.1,0.1,0.2,0.1,0.2c0,0.3,0.1,0.6,0.4,0.8
			c0.2,0.1,0.2,0.1,0.3-0.1c0.1-0.4,0.4-0.7,0.4-1.1c0-0.3,0.3-0.5,0.4-0.8c0.1-0.1,0.1-0.3,0.1-0.4c0-0.1,0.1-0.3,0.2-0.4
			c0,0,0.1-0.1,0.1-0.1c-0.1-0.4,0.2-0.7,0.3-1.1c0.1-0.3,0.2-0.7,0.3-1c0.1-0.2,0.2-0.4,0.3-0.6c0.3-0.3,0.1-0.8,0.5-1.1
			c0.1,0,0.1-0.2,0.1-0.3c0-0.2,0-0.4,0.2-0.5c0,0,0,0,0,0c0.1-0.4,0.2-0.7,0.3-1.1c0-0.1,0.1-0.2,0.2-0.3c0,0,0.1-0.1,0.1-0.1
			c0-0.3,0.2-0.4,0.3-0.7c0.2-0.4,0.3-0.8,0.4-1.2c0-0.2,0.1-0.3,0.3-0.3c0.8,0,1.7,0,2.5,0c0.2,0,0.3,0.1,0.3,0.3
			c0,0.1,0,0.2,0,0.2c0,4.4,0,8.9,0,13.3c0,0.5,0,0.5-0.5,0.5c-0.3,0-0.6,0-0.9,0c-0.2,0-0.3-0.1-0.3-0.3c0-0.1,0-0.2,0-0.3
			c0-3.6,0-7.2,0-10.8c0-0.4-0.1-0.5-0.4-0.4c-0.1,0-0.2,0.2-0.2,0.4c-0.2,0.4-0.3,0.8-0.5,1.1c0,0,0,0,0,0
			c-0.1,0.4-0.3,0.8-0.4,1.3c0,0.1-0.1,0.2-0.2,0.3c0,0.1-0.1,0.1-0.1,0.2c0,0.2,0,0.4-0.2,0.4c0,0,0,0,0,0c0,0.4-0.2,0.7-0.4,1
			c-0.2,0.4-0.2,0.9-0.5,1.2c-0.2,0.3-0.2,0.7-0.4,1c0,0.1-0.1,0.2-0.2,0.4c0,0.1-0.1,0.2-0.1,0.3c0,0.1-0.1,0.2-0.1,0.3
			c0,0-0.1,0.1-0.1,0.1c0.1,0.4-0.2,0.8-0.4,1.1c-0.3,0.4-0.2,0.8-0.5,1.2c-0.2,0.3-0.3,0.7-0.3,1c0,0.3-0.1,0.3-0.4,0.4
			c-0.3,0-0.5,0-0.8,0c-0.3,0-0.4-0.3-0.5-0.6c-0.2-0.4-0.2-0.9-0.5-1.2c-0.1,0,0-0.2-0.1-0.3c-0.2-0.4-0.3-0.8-0.5-1.2
			c0-0.1,0-0.2-0.1-0.3c-0.1-0.1-0.1-0.2-0.2-0.4c0,0-0.1-0.1-0.1-0.1c0.1-0.4-0.2-0.8-0.4-1c-0.2-0.4-0.1-0.9-0.5-1.2
			c0,0,0,0,0-0.1c-0.1-0.4-0.2-0.7-0.3-1.1c0-0.1-0.1-0.2-0.2-0.3c0,0-0.1-0.1-0.1-0.1c-0.1-0.4-0.2-0.8-0.3-1.1
			c-0.2-0.3-0.3-0.7-0.4-1c0-0.1-0.1-0.3-0.2-0.4c-0.3-0.3-0.3-0.6-0.4-1c0-0.2-0.1-0.3-0.2-0.5c0-0.1-0.1-0.2-0.1-0.1
			c-0.1,0-0.2,0.1-0.2,0.2c0,0.2,0,0.5,0,0.7c0,3.5,0,7,0,10.4c0,0.5,0,0.5-0.5,0.5c-0.3,0-0.6,0-1,0c-0.3,0-0.4-0.1-0.4-0.4
			C33.7,69.4,33.7,67.1,33.7,64.9z"/>
		<path class="st1" d="M121.8,57.4c0.5,0,1,0,1.5,0c0.2,0,0.5,0,0.6,0.2c0,0,0.1,0,0.1,0c0.4-0.1,0.8,0.2,1.2,0.3
			c0.3,0.1,0.5,0.3,0.8,0.4c0.2,0.1,0.4,0.2,0.6,0.4c0.3,0.2,0.6,0.4,0.9,0.7c0.2,0.2,0.3,0.4,0.4,0.6c0.1,0.2,0.3,0.3,0.4,0.4
			c0,0,0.1,0,0.1,0.1c0.1,0.3,0.2,0.6,0.3,0.9c0.2,0.4,0.3,0.7,0.5,1.1c0,0.1,0,0.2,0.1,0.3c0.1,0.4-0.1,0.9,0.3,1.3
			c0.2,0.2,0,0.6,0,0.9c0,0.3,0,0.5-0.2,0.8c-0.2,0.2-0.1,0.6-0.1,0.8c0,0.3,0,0.6-0.2,0.9c-0.2,0.2-0.2,0.6-0.4,0.9
			c-0.1,0.3-0.3,0.5-0.5,0.8c0,0.1,0,0.1-0.1,0.2c-0.1,0.2-0.2,0.4-0.4,0.6c-0.2,0.3-0.5,0.5-0.8,0.7c-0.2,0.2-0.4,0.4-0.7,0.5
			c-0.2,0-0.3,0.2-0.5,0.3c-0.3,0.2-0.6,0.3-0.9,0.5c-0.1,0-0.2,0.1-0.3,0.1c-0.1,0-0.2,0-0.2,0c-0.2,0.4-0.6,0.2-1,0.3
			c-0.2,0-0.5-0.1-0.6,0.2c0,0-0.2,0-0.3,0.1c-0.5,0-0.9,0-1.4,0c-0.2,0-0.5,0-0.7-0.2c-0.2-0.1-0.6-0.1-0.9-0.1
			c-0.2,0-0.4,0.1-0.5-0.2c0,0-0.1-0.1-0.1-0.1c-0.4,0.1-0.7-0.2-1.1-0.3c-0.1,0-0.3-0.2-0.4-0.3c-0.6-0.4-1.2-0.8-1.6-1.3
			c-0.1-0.2-0.3-0.3-0.5-0.4c0,0-0.1-0.1-0.1-0.1c-0.1-0.2-0.2-0.4-0.3-0.5c-0.3-0.4-0.4-0.9-0.6-1.4c-0.2-0.5-0.1-1-0.3-1.4
			c-0.4-0.7-0.1-1.4-0.2-2.1c0-0.1,0.1-0.3,0.2-0.4c0-0.1,0.1-0.3,0.1-0.4c0-0.1,0-0.3,0-0.4c0-0.5,0.2-0.9,0.5-1.2
			c0.1-0.2,0.3-0.5,0.3-0.7c0-0.3,0.3-0.5,0.5-0.7c0,0,0.1-0.1,0.1-0.1c0.2-0.5,0.6-0.8,1-1.1c0.3-0.2,0.5-0.4,0.7-0.6
			c0.1-0.1,0.2-0.1,0.3-0.2c0.1-0.1,0.2-0.1,0.3-0.2c0.1,0,0.1-0.1,0.2-0.1c0.3,0,0.5-0.2,0.8-0.2c0.6-0.1,1.1-0.5,1.8-0.4
			C121.2,57.5,121.5,57.4,121.8,57.4C121.8,57.4,121.8,57.4,121.8,57.4z M127.4,65C127.4,65,127.4,65,127.4,65c0-0.5,0-1,0-1.5
			c0-0.1,0-0.3-0.1-0.3c-0.3-0.1-0.2-0.4-0.2-0.6c0-0.1,0-0.2-0.1-0.2c-0.2-0.3-0.4-0.5-0.5-0.8c-0.3-0.5-0.7-0.9-1.1-1.3
			c-0.2-0.1-0.4-0.2-0.6-0.4c-0.4-0.5-1-0.4-1.5-0.7c0,0,0,0,0,0c-0.6,0-1.2,0-1.8,0c-0.6,0-1.2-0.2-1.7,0.2
			c-0.2,0.1-0.5,0.2-0.8,0.3c-0.5,0.2-0.9,0.6-1.3,1c-0.4,0.4-0.9,0.9-1,1.5c0,0-0.1,0.1-0.1,0.1c-0.2,0.3-0.3,0.6-0.4,1
			c-0.1,0.2,0,0.5,0,0.7c0,0.2-0.1,0.3-0.2,0.4c0,0.4-0.1,0.8,0,1.1c0.1,0.2,0.2,0.4,0.2,0.6c0,0.2,0,0.4,0,0.7
			c0,0.1,0.1,0.2,0.1,0.3c0.1,0.1,0.1,0.2,0.2,0.3c0.1,0.4,0.2,0.7,0.4,1.1c0.2,0.4,0.7,0.6,0.8,1.1c0,0,0.1,0.1,0.1,0.1
			c0.2,0.1,0.4,0.3,0.6,0.5c0.5,0.4,1,0.8,1.7,0.7c0.1,0,0.3,0,0.4,0.1c0.1,0.2,0.3,0.2,0.5,0.2c0.5,0,1,0,1.5,0
			c0.1,0,0.2,0,0.3-0.1c0.2-0.1,0.3-0.1,0.5-0.2c0.1,0,0.3,0,0.5-0.1c0.3-0.1,0.6-0.3,0.8-0.5c0.1-0.1,0.3-0.1,0.4-0.2
			c0.2-0.2,0.4-0.5,0.7-0.7c0.2-0.2,0.6-0.4,0.7-0.7c0.3-0.5,0.4-1,0.6-1.4c0-0.1,0-0.1,0-0.2c0.3-0.1,0.2-0.4,0.2-0.6
			C127.4,65.9,127.4,65.4,127.4,65z"/>
		<path class="st1" d="M15.5,65.2c0-0.7,0-1.1,0-1.6c0-0.3-0.1-0.6,0.2-0.8c0,0,0-0.1,0-0.1c0.1-0.4,0.2-0.9,0.4-1.3
			c0-0.1,0.2-0.2,0.3-0.4c0.3-0.6,0.7-1.1,1.3-1.6c0.3-0.2,0.5-0.5,0.8-0.8c0,0,0.1-0.1,0.1-0.1c0.3-0.2,0.7-0.4,1-0.5
			c0.4-0.1,0.7-0.2,1.1-0.3c0.2-0.1,0.4-0.1,0.6-0.2c0.1,0,0.2-0.1,0.3-0.1c1,0,2.1,0,3.1,0c0,0,0,0,0,0c0.4,0.1,0.8,0.3,1.2,0.4
			c0.1,0,0.1,0,0.2,0.1c0.3,0.1,0.7,0.2,1,0.4c0.1,0.1,0.2,0.2,0.4,0.3c0.5,0.3,0.9,0.6,1.2,1c0.1,0.2,0.3,0.3,0.5,0.4
			c0,0,0.1,0.1,0.1,0.1c0,0.3,0.3,0.5,0.5,0.8c0.1,0.2,0.3,0.5,0.4,0.7c0.1,0.2,0.2,0.5,0.3,0.7c0.1,0.4,0.3,0.9,0.3,1.3
			c0,0.9,0,1.7,0,2.6c0,0.1-0.1,0.3-0.1,0.4c0,0.1-0.1,0.2-0.1,0.3c0.1,0.5-0.2,0.9-0.4,1.3c-0.1,0.3-0.4,0.5-0.5,0.8
			c-0.1,0.2-0.1,0.4-0.3,0.6c-0.4,0.3-0.7,0.7-1,1.1c-0.2,0.2-0.5,0.5-0.7,0.7c0,0,0,0.1-0.1,0.1c-0.3,0.1-0.6,0.2-0.9,0.3
			c-0.4,0.2-0.7,0.4-1.1,0.5c-0.1,0.1-0.3,0-0.4,0.1c-0.3,0-0.6-0.1-0.8,0.2c0,0-0.2,0-0.2,0c-0.6,0-1.3,0-1.9,0c-0.1,0-0.1,0-0.2,0
			c-0.3-0.4-0.8-0.2-1.2-0.3c-0.1,0-0.2-0.1-0.4-0.2c-0.1,0-0.1-0.1-0.2-0.1c-0.5-0.2-1-0.4-1.5-0.6c-0.1,0-0.2-0.2-0.3-0.2
			c-0.4-0.3-0.8-0.6-1.2-0.9c-0.2-0.2-0.3-0.4-0.4-0.6c-0.1-0.1-0.2-0.2-0.2-0.2c-0.3-0.4-0.4-0.8-0.7-1.2c-0.1-0.3-0.1-0.6-0.3-0.8
			C15.2,66.6,15.7,65.8,15.5,65.2z M23.1,59.1C23.1,59.1,23.1,59.1,23.1,59.1c-0.5,0-1,0-1.5,0c-0.1,0-0.2,0-0.4,0.1
			c-0.3,0.1-0.5,0.3-0.8,0.4c-0.3,0.1-0.6,0.2-0.9,0.4c-0.5,0.4-0.9,0.9-1.3,1.5c-0.1,0.2-0.3,0.3-0.3,0.5c-0.1,0.4-0.4,0.7-0.3,1.2
			c0,0,0,0.1-0.1,0.1c-0.1,0.2-0.2,0.3-0.2,0.5c0,0.8,0,1.5,0,2.3c0,0.4,0.2,0.9,0.3,1.3c0,0,0.1,0.1,0.1,0.1c0,0.1,0.1,0.1,0.1,0.2
			c0.2,0.3,0.3,0.7,0.5,1c0.3,0.4,0.6,0.7,0.9,1c0.3,0.4,0.8,0.5,1.2,0.8c0.3,0.2,0.7,0.2,1,0.3c0,0,0,0.1,0.1,0.1
			c0.1,0.1,0.2,0.2,0.3,0.2c0.6,0,1.1,0,1.7,0c0.1,0,0.2,0,0.3-0.1c0.2-0.1,0.3-0.1,0.5-0.2c0.2,0,0.5,0,0.6-0.1
			c0.3-0.1,0.5-0.3,0.8-0.5c0.1-0.1,0.2-0.2,0.3-0.2c0.5-0.1,0.6-0.5,1-0.7c0.1-0.1,0.2-0.2,0.3-0.3c0.1-0.3,0.3-0.6,0.4-0.9
			c0.1-0.2,0.1-0.5,0.3-0.6c0.3-0.2,0.2-0.5,0.2-0.8c0-0.1,0.1-0.3,0.1-0.4c0-0.1,0.2-0.3,0.2-0.4c-0.1-0.7,0.2-1.5-0.2-2.1
			c0.1-0.7-0.4-1.3-0.6-1.9c-0.1-0.2-0.2-0.4-0.4-0.5c-0.2-0.3-0.5-0.5-0.7-0.7c-0.3-0.3-0.6-0.7-1.1-0.8c-0.2,0-0.5-0.1-0.7-0.3
			c-0.2-0.2-0.4-0.2-0.7-0.2C24,59.1,23.5,59.1,23.1,59.1z"/>
		<path class="st1" d="M134.3,60.3c0,0.2-0.1,0.4-0.1,0.6c0,3.5,0,7.1,0,10.6c0,0.6,0,0.6-0.6,0.6c-0.4,0-0.8,0.1-1-0.1
			c-0.2-0.2-0.1-0.6-0.1-1c0-4.3,0-8.5,0-12.8c0-0.5,0-0.5,0.4-0.5c0.6,0,1.2,0,1.7,0c0.3,0,0.5,0.2,0.6,0.4
			c0.1,0.3,0.3,0.5,0.5,0.7c0,0,0.1,0.1,0.1,0.1c0.1,0.2,0.2,0.4,0.3,0.6c0.3,0.4,0.6,0.7,0.8,1.1c0.1,0.2,0.1,0.5,0.3,0.7
			c0.2,0.2,0.4,0.6,0.6,0.8c0.3,0.3,0.5,0.7,0.6,1.2c0,0.1,0.1,0.1,0.2,0.2c0.2,0.3,0.4,0.6,0.6,0.9c0.3,0.4,0.4,0.9,0.8,1.2
			c0.2,0.1,0.2,0.4,0.3,0.7c0.2,0.4,0.5,0.7,0.7,1c0.1,0.2,0.3,0.5,0.4,0.7c0.3,0.4,0.5,0.9,0.9,1.2c0.1,0,0.2,0.1,0.2,0
			c0.1,0,0.1-0.1,0.1-0.2c0-0.1,0-0.3,0-0.4c0-3.5,0-7,0-10.4c0-0.5,0-0.5,0.5-0.5c0.3,0,0.6,0,0.9,0c0.2,0,0.3,0.1,0.3,0.3
			c0,0.1,0,0.1,0,0.2c0,4.4,0,8.9,0,13.3c0,0.5,0,0.5-0.5,0.5c-0.5,0-1.1,0-1.6,0c-0.2,0-0.4-0.1-0.5-0.3c0-0.1-0.2-0.3-0.3-0.4
			c-0.3-0.4-0.5-0.7-0.8-1.1c-0.1-0.2-0.2-0.4-0.4-0.6c-0.3-0.4-0.6-0.8-0.8-1.2c-0.2-0.4-0.4-0.8-0.6-1.2c-0.2-0.4-0.5-0.7-0.8-1
			c0,0,0-0.1-0.1-0.1c-0.1-0.2-0.2-0.5-0.4-0.6c-0.2-0.1-0.2-0.3-0.2-0.4c0-0.1-0.2-0.2-0.3-0.4c-0.2-0.3-0.3-0.6-0.5-0.8
			c-0.4-0.4-0.5-0.8-0.8-1.2c-0.3-0.3-0.4-0.8-0.7-1.1c-0.3-0.5-0.6-0.9-0.9-1.3C134.4,60.3,134.4,60.3,134.3,60.3z"/>
		<path class="st1" d="M64.8,64.9c0-2.2,0-4.5,0-6.7c0-0.3,0.1-0.4,0.4-0.4c2.7,0,5.5,0,8.2,0c0.5,0,0.5,0,0.5,0.5
			c0,0.2,0,0.5,0,0.7c0,0.5,0,0.5-0.5,0.5c-2,0-3.9,0-5.9,0c-0.9,0-0.8-0.2-0.8,0.9c0,1.1,0,2.1,0,3.2c0,0.6,0,0.6,0.6,0.6
			c2,0,3.9,0,5.9,0c0.3,0,0.4,0.1,0.4,0.4c0,1,0,1-1,1c-1.8,0-3.7,0-5.5,0c-0.3,0-0.4,0.1-0.4,0.4c0,1.4,0,2.9,0,4.3
			c0,0.5,0.1,0.5,0.5,0.5c2.2,0,4.4,0,6.5,0c0.4,0,0.4,0,0.4,0.5c0,1,0,1-1,1c-2.7,0-5.3,0-8,0c-0.5,0-0.5,0-0.5-0.5
			C64.8,69.4,64.8,67.1,64.8,64.9z"/>
		<path class="st1" d="M1.1,65c0-0.5,0-0.9,0-1.4c0-0.3-0.1-0.6,0.2-0.9c0.1,0,0-0.2,0.1-0.3c0.1-0.2,0.1-0.3,0.2-0.5
			c0-0.1,0.1-0.1,0.1-0.2c-0.1-0.5,0.3-0.7,0.5-1c0.3-0.7,1-1.2,1.5-1.7c0.3-0.3,0.5-0.4,0.8-0.6c0.4-0.2,0.8-0.3,1.1-0.6
			c0.3-0.2,0.6-0.1,0.9-0.2c1.2-0.5,2.4-0.2,3.7-0.2c0.1,0,0.3,0.1,0.4,0.2c0.1,0,0.1,0.1,0.1,0.1c0.4-0.1,0.8,0.2,1.1,0.3
			c0.3,0.1,0.5,0.3,0.7,0.5c0,0,0.1,0.1,0.1,0.1c0.5,0,0.6,0.5,1,0.7c0,0,0,0.3,0,0.4c-0.2,0.2-0.4,0.4-0.5,0.5c0,0-0.1,0.1-0.2,0.1
			c-0.1,0-0.2,0-0.2,0c-0.2,0.1-0.3,0.4-0.6,0.2c-0.2-0.1-0.3-0.3-0.4-0.5c-0.2-0.2-0.4-0.3-0.6-0.4c-0.3-0.2-0.6-0.3-0.9-0.5
			c-0.1,0-0.2-0.1-0.3-0.1c-0.9,0-1.8,0-2.7,0c-0.1,0-0.3,0.1-0.4,0.2c0,0-0.1,0.1-0.1,0.1c-0.5,0.2-1,0.3-1.4,0.8
			c-0.1,0.1-0.4,0.2-0.5,0.3c-0.2,0.2-0.4,0.5-0.6,0.8c-0.3,0.3-0.4,0.8-0.6,1.1c-0.2,0.3-0.1,0.6-0.3,0.9c-0.6,1-0.2,2.1-0.2,3.1
			c0,0.1,0,0.1,0,0.2c0.3,0.2,0.2,0.5,0.3,0.8c0.1,0.3,0.3,0.6,0.4,0.8c0,0.1,0.1,0.1,0.1,0.2c0.1,0.2,0.2,0.4,0.4,0.6
			c0.2,0.3,0.5,0.5,0.8,0.8c0.2,0.2,0.4,0.4,0.7,0.5c0.3,0.1,0.5,0.3,0.8,0.4c0.1,0.1,0.3,0.1,0.4,0.1c0.2,0,0.4-0.1,0.5,0.2
			c0,0.1,0.2,0.1,0.3,0.1c0.6,0,1.2,0,1.7,0c0.1,0,0.2-0.1,0.3-0.2c0,0,0.1-0.1,0.1-0.1c0.4,0.1,0.8-0.2,1.1-0.3
			c0.4-0.1,0.7-0.5,1-0.7c0.3-0.2,0.4-0.6,0.9-0.4c0.2,0.1,0.3,0.3,0.5,0.4c0.1,0.1,0.2,0.2,0.4,0.2c0.2,0.1,0.2,0.2,0.2,0.4
			c-0.1,0.2-0.2,0.3-0.3,0.4c-0.3,0.2-0.5,0.5-0.8,0.7c-0.3,0.2-0.5,0.3-0.8,0.5c-0.3,0.2-0.6,0.3-0.9,0.5c-0.1,0-0.2,0.1-0.3,0.1
			c-0.2,0-0.5,0-0.7,0c-0.1,0-0.2,0-0.2,0c-0.3,0.4-0.7,0.2-1.1,0.2c-0.3,0-0.6,0-0.9,0c-0.2,0-0.4,0-0.5-0.2
			c-0.1-0.1-0.4-0.1-0.6-0.1c-0.3,0-0.6,0.1-0.8-0.2c-0.1-0.2-0.5-0.2-0.7-0.3c-0.5-0.2-0.9-0.4-1.4-0.7c-0.3-0.2-0.5-0.5-0.7-0.7
			c-0.1-0.1-0.2-0.2-0.3-0.3c-0.3-0.3-0.6-0.6-0.8-1c-0.2-0.3-0.2-0.7-0.4-0.9c-0.2-0.3-0.1-0.7-0.3-0.9c-0.3-0.4-0.2-0.7-0.2-1.1
			C1.1,65.8,1.1,65.4,1.1,65z"/>
		<path class="st1" d="M106.7,59.5c-0.4,0.3-0.7,0.6-1,0.9c-0.2,0.1-0.3,0.2-0.5,0c-0.4-0.3-0.9-0.7-1.4-1c-0.1-0.1-0.2,0-0.3-0.1
			c-0.1,0-0.2-0.1-0.3-0.2c-0.1,0-0.2-0.1-0.3-0.1c-0.9,0-1.8,0-2.8,0c-0.1,0-0.3,0.1-0.4,0.2c0,0-0.1,0.1-0.1,0.1
			c-0.5,0.1-0.9,0.3-1.2,0.6c-0.4,0.3-0.7,0.7-1.1,1.1c-0.1,0.1-0.2,0.2-0.3,0.3c-0.1,0.2-0.2,0.3-0.2,0.5c-0.1,0.2-0.3,0.5-0.4,0.7
			c-0.1,0.2-0.2,0.3-0.2,0.5c-0.1,0.3,0.1,0.6-0.3,0.8c0,0,0,0.1,0,0.2c0,0.6-0.1,1.3,0,1.9c0.1,0.5,0.1,1,0.5,1.4
			c0,0.1,0,0.2,0.1,0.2c0.1,0.3,0.3,0.6,0.4,0.8c0.1,0.1,0.1,0.2,0.2,0.4c0.1,0.1,0.2,0.3,0.3,0.4c0.3,0.3,0.6,0.7,1,0.9
			c0.2,0.2,0.6,0.2,0.8,0.4c0.3,0.3,0.7,0.1,1,0.3c0.8,0.5,1.6,0.1,2.5,0.2c0.3-0.4,0.8-0.2,1.2-0.5c0.5-0.3,0.9-0.6,1.3-1
			c0.2-0.1,0.3-0.4,0.4-0.5c0.3,0.2,0.6,0.4,0.9,0.6c0.3,0.2,0.5,0.5,0.4,0.7c-0.1,0.1-0.2,0.3-0.3,0.4c-0.3,0.3-0.6,0.6-0.9,0.8
			c-0.2,0.1-0.4,0.2-0.5,0.3c-0.3,0.1-0.6,0.2-0.8,0.4c-0.1,0-0.1,0-0.2,0c-0.2,0.4-0.6,0.2-0.9,0.3c-0.2,0-0.3,0.1-0.4,0.2
			c-0.1,0-0.2,0.1-0.3,0.1c-0.6,0-1.2,0-1.9,0c-0.1,0-0.2,0-0.3-0.1c-0.1-0.1-0.3-0.2-0.4-0.2c-0.3-0.1-0.7,0.1-0.9-0.3
			c0,0-0.1,0-0.1,0c-0.5-0.1-0.9-0.4-1.3-0.5c-0.5-0.2-0.8-0.5-1.1-0.8c0,0,0,0,0,0c-0.6-0.1-0.7-0.8-1.1-1.1
			c-0.3-0.3-0.5-0.7-0.6-1.1c-0.1-0.3-0.3-0.6-0.5-0.8c0-0.1,0-0.2,0-0.2c0-0.3,0-0.6-0.2-0.9c-0.1,0,0-0.2,0-0.3c0-0.9,0-1.8,0-2.8
			c0-0.1,0.1-0.3,0.2-0.4c0-0.1,0.1-0.3,0.1-0.5c0-0.3-0.1-0.6,0.2-0.7c0,0,0,0,0,0c0.1-0.3,0.2-0.6,0.3-0.9
			c0.1-0.1,0.2-0.2,0.3-0.3c0.3-0.5,0.6-0.9,1.1-1.3c0.1-0.1,0.1-0.2,0.2-0.3c0.4-0.3,0.7-0.6,1.1-0.8c0.3-0.2,0.6-0.2,0.9-0.4
			c0.4-0.1,0.9-0.2,1.1-0.3c0.5-0.3,0.9-0.2,1.3-0.2c0.7,0,1.5,0,2.2,0c0.1,0,0.3,0.1,0.4,0.2c0.1,0,0.1,0.1,0.1,0.1
			c0.4,0,0.7,0.2,1,0.3c0.4,0.1,0.7,0.3,0.9,0.5c0.1,0.1,0.4,0,0.5,0.3C106.2,59.1,106.5,59.3,106.7,59.5z"/>
		<path class="st1" d="M52.4,64.9c0-2.2,0-4.5,0-6.7c0-0.5,0-0.5,0.5-0.5c1.7,0,3.4,0,5.2,0c0.1,0,0.3,0.1,0.4,0.2
			c0.2,0.1,0.4,0.1,0.7,0.1c0.2,0,0.4,0,0.5,0.2c0,0,0.1,0,0.1,0.1c0.3,0.1,0.6,0.2,0.9,0.3c0.1,0.1,0.3,0.2,0.4,0.3
			c0.2,0.4,0.5,0.7,0.7,1.1c0.5,0.9,0.3,2,0.2,2.9c0,0.3-0.3,0.5-0.4,0.8c0,0.1-0.1,0.1-0.1,0.2c-0.1,0.5-0.5,0.7-0.9,0.9
			c-0.3,0.1-0.6,0.3-0.9,0.5c-0.1,0-0.1,0.1-0.2,0.1c-0.3,0-0.5-0.1-0.7,0.2c0,0.1-0.2,0-0.3,0c-1.2,0-2.3,0-3.5,0
			c-0.5,0-0.5,0-0.5,0.5c0,1.8,0,3.6,0,5.5c0,0.3-0.1,0.5-0.4,0.5c-0.4,0-0.7,0-1.1,0c-0.3,0-0.4-0.1-0.4-0.4
			C52.4,69.4,52.4,67.1,52.4,64.9z M54.3,61.8C54.3,61.8,54.3,61.8,54.3,61.8c0,0.7,0,1.4,0,2.1c0,0.3,0.1,0.4,0.4,0.4
			c0.7,0,1.5,0,2.2,0c0.1,0,0.2-0.1,0.3-0.1c0.1,0,0.2-0.1,0.3-0.1c0.3-0.1,0.7,0.1,1-0.3c0,0,0.1,0,0.1,0c0.3-0.1,0.6-0.2,0.8-0.4
			c0,0,0-0.1,0.1-0.1c0.1-0.3,0.2-0.6,0.3-0.9c0,0,0.1-0.1,0.1-0.1c0.1-0.1,0.1-0.2,0.2-0.3c0.1-0.6-0.1-1.1-0.5-1.5
			c-0.1-0.1-0.2-0.3-0.3-0.4c-0.2-0.2-0.4-0.5-0.7-0.5c-0.1,0-0.1,0-0.2-0.1c-0.2-0.1-0.3-0.2-0.5-0.2c-1.1,0-2.2,0-3.3,0
			c-0.3,0-0.4,0.1-0.4,0.4C54.3,60.4,54.3,61.1,54.3,61.8z"/>
		<path class="st1" d="M80.4,65.7c0-1.9,0-3.9,0-5.8c0-0.5,0-0.5-0.5-0.5c-1.3,0-2.7,0-4,0c-0.3,0-0.4-0.1-0.4-0.4
			c0-0.3,0-0.6,0-0.9c0-0.3,0.1-0.4,0.4-0.4c1,0,1.9,0,2.9,0c2.6,0,5.2,0,7.7,0c0.4,0,0.5,0.1,0.4,0.4c0,0.3,0,0.5,0,0.8
			c0,0.3-0.1,0.4-0.4,0.4c-1.3,0-2.5,0-3.8,0c-0.1,0-0.2,0-0.3,0c-0.2,0-0.4,0.1-0.4,0.4c0,0.1,0,0.3,0,0.4c0,3.8,0,7.6,0,11.4
			c0,0.5,0,0.5-0.5,0.5c-0.2,0-0.5,0-0.7,0c-0.3,0-0.4-0.1-0.4-0.4C80.4,69.7,80.4,67.7,80.4,65.7z"/>
		<path class="st1" d="M89,64.9c0-2.2,0-4.4,0-6.7c0-0.5,0-0.5,0.5-0.5c0.4,0,0.7,0,1.1,0c0.3,0,0.4,0.1,0.4,0.4c0,1.9,0,3.7,0,5.6
			c0,2.6,0,5.3,0,7.9c0,0.5,0,0.5-0.5,0.5c-0.3,0-0.6,0-0.9,0c-0.5,0-0.5,0-0.5-0.5C89,69.3,89,67.1,89,64.9z"/>
		<path class="st1" d="M111.1,64.9c0,2.2,0,4.5,0,6.7c0,0.3-0.1,0.5-0.4,0.4c-0.3,0-0.6,0-1,0c-0.5,0-0.5,0-0.5-0.5
			c0-4,0-8.1,0-12.1c0-0.5,0-0.9,0-1.4c0-0.2,0.1-0.3,0.3-0.3c0.4,0,0.8,0,1.2,0c0.3,0,0.4,0.1,0.4,0.4
			C111.1,60.4,111.1,62.6,111.1,64.9z"/>
		<path class="st1" d="M28,78.6c0.3-0.4,0.7-0.7,0.8-1.2c0-0.1,0.2-0.2,0.3-0.3c0.3-0.5,0.7-0.9,1-1.4c0.2-0.4,0.7-0.7,0.7-1.2
			c0-0.2,0.2-0.5,0.6-0.4c1.5,0,3,0,4.4,0c0.1,0,0.2,0,0.4,0c-0.4,0.4-0.7,0.7-1,1c-0.2,0.2-0.5,0.5-0.8,0.7c-0.3,0.3-0.7,0.7-1,1
			c-0.2,0.2-0.5,0.5-0.7,0.7c-0.3,0.3-0.6,0.6-1,0.9c0,0-0.1,0-0.2,0c-1.2,0-2.4,0-3.5,0C28.1,78.6,28,78.6,28,78.6z"/>
		<g>
			<path class="st1" d="M19.8,107.9c-0.1,0.4-0.1,0.7-0.2,1c0,0.1-0.1,0.2-0.2,0.4c-0.1,0.2-0.1,0.3-0.1,0.5c0,0.2,0.1,0.5-0.2,0.6
				c0,0,0,0,0,0.1c-0.1,0.5-0.2,1-0.3,1.4c0,0.2,0,0.4-0.2,0.5c0,0-0.1,0.1-0.1,0.1c-0.1,0.5-0.2,1-0.3,1.5c0,0.3-0.1,0.4-0.4,0.4
				c-0.3,0-0.7,0-1,0c-0.1,0-0.2-0.1-0.2-0.1c0-0.2-0.2-0.4-0.2-0.6c-0.2-0.4-0.2-0.8-0.3-1.3c-0.1-0.2-0.2-0.5-0.2-0.7
				c0-0.1,0-0.2-0.1-0.3c0-0.2,0-0.4-0.2-0.6c-0.1-0.1-0.1-0.3-0.1-0.4c0-0.2,0-0.3-0.2-0.3c-0.2,0-0.4,0.1-0.4,0.3
				c0,0.2,0,0.3-0.1,0.5c0,0.1-0.1,0.3-0.2,0.4c0,0,0,0.1-0.1,0.1c-0.1,0.5-0.2,1-0.3,1.5c0,0.2-0.1,0.3-0.2,0.5
				c0,0.1-0.1,0.2-0.1,0.2c0,0.3,0,0.6-0.3,0.8c-0.1,0-0.1,0.1-0.2,0.1c-0.3,0-0.7,0-1,0c0,0-0.1,0-0.1-0.1
				c-0.1-0.3-0.3-0.6-0.4-0.8c-0.1-0.2,0-0.5-0.2-0.6c0,0,0-0.1,0-0.2c0-0.3,0.1-0.7-0.3-1c-0.1,0,0-0.2,0-0.3
				c-0.1-0.2-0.1-0.3-0.2-0.5c0-0.1-0.1-0.2-0.1-0.3c-0.1-0.3-0.2-0.6-0.2-0.9c0-0.1,0-0.2-0.1-0.3c-0.1-0.2-0.2-0.4-0.2-0.5
				c-0.1-0.3-0.1-0.6-0.1-0.9c0,0,0.2-0.1,0.2-0.1c0.3,0,0.6,0,0.9,0c0.2,0,0.3,0.1,0.3,0.3c0,0.2,0,0.5,0.2,0.7
				c0.1,0.1,0,0.3,0.1,0.5c0,0.2-0.1,0.5,0.2,0.6c0.1,0,0,0.2,0.1,0.4c0.1,0.4-0.1,0.8,0.2,1.1c0.1,0.1,0,0.5,0.1,0.7
				c0,0.2,0,0.3,0.3,0.3c0.2,0,0.4-0.1,0.4-0.3c0-0.2,0-0.3,0-0.5c0-0.1,0.1-0.2,0.2-0.4c0-0.2,0.1-0.3,0.1-0.5
				c0-0.3-0.1-0.6,0.2-0.7c0,0,0,0,0-0.1c0.1-0.5,0.3-1,0.3-1.5c0.1-0.5,0.2-0.6,0.7-0.6c0.1,0,0.2,0,0.3,0c0.6,0,0.4,0.1,0.7,0.5
				c0.2,0.4,0,1,0.5,1.3c0.1,0.1,0,0.2,0.1,0.3c0,0.3,0,0.6,0.2,0.8c0.1,0.1,0,0.3,0.1,0.4c0,0.3,0,0.5,0.3,0.7c0.1,0,0,0.2,0.1,0.4
				c0,0.1,0.1,0.1,0.1,0.2c0.1,0,0.1-0.1,0.2-0.1c0.1-0.5,0.4-0.9,0.4-1.5c0-0.1,0.1-0.2,0.1-0.4c0.1-0.1,0.1-0.3,0.1-0.4
				c0-0.3-0.1-0.6,0.2-0.8c0.1-0.1,0.1-0.4,0.1-0.6c0-0.6,0.2-0.8,0.8-0.8C19.3,107.9,19.6,107.9,19.8,107.9
				C19.8,107.9,19.9,107.9,19.8,107.9z"/>
			<path class="st1" d="M24,114.7c-0.2,0-0.5,0-0.7,0c-0.2,0-0.4,0-0.5-0.2c0,0-0.1-0.1-0.2-0.1c-0.5,0-0.8-0.4-1.1-0.7
				c-0.3-0.3-0.6-0.7-0.8-1c0,0,0-0.1,0-0.2c0-0.3,0-0.5-0.2-0.7c-0.2-0.1,0-0.8,0.1-1c0,0,0.1-0.1,0.1-0.2c0-0.3,0.1-0.6,0.2-0.9
				c0.2-0.4,0.5-0.7,0.8-0.9c0.2-0.2,0.3-0.3,0.5-0.5c0.1-0.1,0.2-0.1,0.3-0.1c0.2-0.1,0.4-0.1,0.5-0.2c0.2-0.1,2.2-0.1,2.3,0.1
				c0,0,0.1,0.1,0.2,0.1c0.6-0.1,0.8,0.4,1.2,0.7c0.3,0.3,0.6,0.7,0.9,1.1c0,0.1,0,0.2,0,0.3c0,0.2,0,0.4,0.2,0.6
				c0.1,0.1,0,0.9-0.1,1c-0.1,0.1-0.1,0.1-0.1,0.2c-0.1,0.3,0,0.6-0.3,0.9c-0.2,0.3-0.5,0.6-0.8,0.9c-0.1,0.2-0.3,0.3-0.5,0.4
				c-0.1,0.1-0.2,0.1-0.2,0.1c-0.2,0.1-0.5,0-0.6,0.3c0,0-0.2,0-0.3,0.1C24.6,114.7,24.3,114.7,24,114.7z M26.1,111.3
				c0.1-0.7-0.2-1.1-0.6-1.6c-0.2-0.3-0.5-0.6-0.9-0.5c-0.1,0-0.1-0.1-0.2-0.1c-0.2-0.1-0.3-0.2-0.5-0.1c-0.3,0.1-0.7,0.2-1,0.3
				c-0.5,0.3-0.8,0.8-0.9,1.2c-0.1,0.5-0.4,1.2,0.2,1.7c0,0,0,0.1,0,0.1c0.1,0.4,0.6,0.8,1,0.9c0.1,0,0.1,0,0.2,0.1
				c0.3,0.3,0.6,0.3,1,0c0.1-0.1,0.2-0.1,0.3-0.1c0.6-0.1,1-0.4,1.1-1c0-0.1,0.1-0.1,0.1-0.2c0.1-0.1,0.1-0.2,0.2-0.3
				C26.1,111.7,26.1,111.5,26.1,111.3z"/>
			<path class="st1" d="M40.5,111.1c0-1,0-1.9,0-2.9c0-0.3,0.1-0.4,0.4-0.4c0.7,0,1.4,0,2.1,0c0.1,0,0.2,0.1,0.4,0.1
				c0.1,0,0.2,0.1,0.3,0.1c0.2,0,0.5,0,0.7,0c0.1,0,0.2,0.1,0.4,0.2c0,0,0.1,0.1,0.1,0.1c0.5,0.1,0.7,0.5,1,0.8
				c0.2,0.2,0.4,0.5,0.5,0.7c0,0.1,0,0.2,0,0.2c0,0.7,0,1.3,0,2c0,0.3-0.2,0.6-0.4,0.9c-0.1,0.1-0.1,0.2-0.2,0.3
				c0,0.1-0.1,0.1-0.2,0.2c-0.2,0.2-0.5,0.3-0.7,0.5c0,0,0,0.1,0,0.1c-0.3,0.1-0.6,0.3-0.9,0.3c-1.1,0.1-2.2,0-3.3,0.1
				c-0.3,0-0.3-0.1-0.3-0.4C40.5,113.1,40.5,112.1,40.5,111.1z M41.8,111.2C41.8,111.2,41.8,111.2,41.8,111.2c0,0.6,0,1.2,0,1.8
				c0,0.3,0.1,0.4,0.4,0.3c0.6-0.1,1.3,0.2,2-0.2c0.3-0.2,0.6-0.3,0.7-0.7c0-0.1,0.1-0.1,0.1-0.2c0.1-0.1,0.1-0.1,0.1-0.2
				c0-0.8,0.3-1.6-0.5-2.3c-0.3-0.2-0.6-0.5-1-0.5c-0.1,0-0.1-0.1-0.2-0.1c-0.1-0.1-0.3-0.1-0.4-0.2c-0.2,0-0.5,0-0.7,0
				c-0.3,0-0.4,0.1-0.4,0.4C41.8,110,41.8,110.6,41.8,111.2z"/>
			<path class="st1" d="M34.1,114.4c-0.6,0.1-1.1,0.1-1.6,0c0,0-0.1,0-0.1-0.1c-0.1-0.3-0.2-0.6-0.3-0.8c-0.1-0.2-0.2-0.3-0.3-0.4
				c-0.3-0.3-0.4-0.6-0.5-1c-0.2-0.4-0.5-0.2-0.7-0.3c-0.3,0-0.2,0.2-0.2,0.4c0,0.6,0,1.2,0,1.9c0,0.3-0.1,0.4-0.4,0.4
				c-0.2,0-0.4,0-0.7,0c-0.3,0-0.3-0.1-0.3-0.4c0-2,0-3.9,0-5.9c0-0.3,0.1-0.4,0.3-0.4c0.8,0,1.6,0,2.3,0c0.1,0,0.3,0.1,0.4,0.2
				c0.1,0,0.1,0.1,0.2,0.1c0.3,0,0.6,0.1,0.9,0.3c0.4,0.2,0.6,0.6,0.6,1c0.1,0.4,0.1,0.8,0,1.1c-0.1,0.3-0.2,0.7-0.6,0.8
				c-0.4,0.1-0.6,0.4-0.5,0.7c0.2,0.4,0.4,0.7,0.7,1c0,0.1,0.1,0.1,0.1,0.2c0.1,0.3,0.3,0.6,0.4,0.9C33.9,114.2,34,114.2,34.1,114.4
				z M30.3,110c0,0.2,0,0.4,0,0.6c0,0.3,0.1,0.4,0.5,0.4c0.4,0,0.8,0,1.2-0.3c0.1-0.1,0.4,0,0.4-0.3c0-0.2,0.2-0.3,0.2-0.5
				c0.1-0.3-0.3-0.7-0.6-0.7c-0.1,0-0.2-0.1-0.3-0.1c-0.2-0.1-0.3-0.2-0.5-0.2C30.3,108.9,30.3,108.9,30.3,110z"/>
			<path class="st1" d="M59.1,107.9c-0.4,0.5-0.8,1.1-1.2,1.5c-0.4,0.4-0.9,0.8-1.3,1.2c-0.1,0.1-0.1,0.5,0,0.6
				c0.2,0.2,0.3,0.3,0.5,0.5c0.2,0.3,0.4,0.5,0.6,0.8c0.2,0.3,0.5,0.5,0.8,0.7c0.1,0.1,0.2,0.3,0.4,0.5c0.1,0.1,0.1,0.2,0.2,0.3
				c0.1,0.2,0.1,0.3-0.1,0.3c-0.4,0-0.8,0-1.2,0c-0.1,0-0.2-0.2-0.3-0.3c-0.2-0.2-0.5-0.4-0.7-0.7c-0.1-0.2-0.2-0.4-0.3-0.6
				c-0.2-0.3-0.5-0.6-0.7-0.8c-0.1-0.1-0.2-0.2-0.2-0.3c-0.1-0.3-0.3-0.3-0.4-0.2c-0.1,0-0.2,0.2-0.2,0.3c0,0.7,0,1.5,0,2.2
				c0,0.3-0.1,0.4-0.4,0.4c-0.2,0-0.5,0-0.7,0c-0.2,0-0.3-0.1-0.3-0.3c0-2,0-4,0-6c0-0.2,0.1-0.3,0.3-0.3c0.2,0,0.5,0,0.7,0
				c0.2,0,0.3,0.1,0.3,0.3c0,0.6,0,1.2,0,1.8c0,0.1,0,0.3,0,0.4c0,0.1,0.1,0.2,0.1,0.3c0.1-0.1,0.2-0.1,0.2-0.2
				c0.5-0.4,1-0.8,1.3-1.3c0.2-0.3,0.5-0.6,0.7-0.9c0.2-0.2,0.4-0.5,0.7-0.4c0.3,0,0.6,0,0.9,0C58.9,107.9,59,107.9,59.1,107.9z"/>
			<path class="st1" d="M47.5,113.8c0.2-0.2,0.3-0.4,0.5-0.6c0.2-0.2,0.4-0.2,0.5,0c0,0,0,0.1,0.1,0.1c0.5,0.1,0.9,0.6,1.5,0.4
				c0.2-0.1,0.4-0.3,0.6-0.4c0.1,0,0.1-0.1,0.1-0.2c0-0.2,0.2-0.5,0.1-0.6c-0.3-0.3-0.6-0.5-0.9-0.7c-0.4-0.2-0.8-0.2-1.2-0.4
				c-0.4-0.2-0.6-0.5-0.9-0.7c0,0-0.1-0.1-0.1-0.2c0-0.4-0.1-0.9,0-1.2c0.1-0.3,0.1-0.7,0.6-0.8c0.3-0.1,0.6-0.3,0.8-0.5
				c0.1,0,0.2,0,0.2,0c0.5,0,1,0,1.5,0c0.1,0,0.2,0.1,0.3,0.1c0.1,0,0.1,0.1,0.2,0.1c0.4,0,0.6,0.2,0.9,0.4
				c-0.3,0.3-0.6,0.6-0.9,0.9c-0.3-0.2-0.5-0.4-0.8-0.5c-0.3-0.1-0.7-0.1-1,0c-0.3,0.1-0.5,0.5-0.5,1c0,0.2,0.3,0.5,0.6,0.6
				c0.1,0,0.2,0.1,0.3,0.2c0,0,0.1,0.1,0.1,0.1c0.4-0.1,0.7,0.2,1.1,0.3c0.3,0.2,0.6,0.4,0.8,0.7c0.4,0.3,0.3,0.8,0.3,1.2
				c0,0.1-0.1,0.3-0.2,0.4c0,0.1-0.1,0.1-0.1,0.2c-0.2,0.5-0.5,0.8-1,1c-0.2,0-0.3,0.2-0.4,0.2c-0.5,0-1.1,0-1.6,0
				c-0.1,0-0.1-0.2-0.2-0.2C48.1,114.5,47.8,114.1,47.5,113.8z"/>
			<path class="st1" d="M77.9,108.5c-0.2,0.3-0.5,0.6-0.7,0.9c-0.4-0.4-1.4-0.7-2-0.5c-0.5,0.2-0.6,0.8-0.2,1.2
				c0.3,0.4,0.8,0.4,1.2,0.6c0.1,0,0.2,0.1,0.3,0.2c0.1,0,0.2,0.1,0.2,0.1c0.5,0,0.8,0.4,1.1,0.7c0,0,0,0.2,0,0.2c0,0.3,0,0.7,0,1
				c0.1,0.6-0.4,0.9-0.7,1.2c-0.2,0.2-0.5,0.2-0.6,0.3c-0.4,0.4-0.9,0.2-1.3,0.3c-0.2,0-0.5,0.1-0.6-0.2c0,0-0.1,0-0.1-0.1
				c-0.3-0.1-0.7-0.2-1-0.4c-0.2-0.1-0.2-0.3-0.1-0.5c0.2-0.2,0.3-0.4,0.5-0.5c0.1-0.1,0.3,0,0.4,0c0.1,0,0.3,0.1,0.4,0.2
				c0,0,0.1,0,0.2,0.1c0.5,0.4,0.8,0.4,1.3,0c0.4-0.3,0.4-0.9,0-1.3c-0.2-0.2-0.5-0.2-0.7-0.3c-0.3-0.2-0.7-0.2-1-0.3
				c-0.3-0.2-0.6-0.5-0.9-0.8c-0.1-0.1-0.1-0.2-0.1-0.3c0-0.1-0.1-0.2-0.2-0.3c-0.2-0.2-0.1-0.4,0-0.5c0.1-0.1,0.2-0.2,0.2-0.3
				c0-0.4,0.2-0.6,0.4-0.8c0.5-0.5,1.1-0.6,1.8-0.6c0.3,0,0.5,0,0.8,0c0.1,0,0.3,0.1,0.4,0.2c0.1,0,0.1,0.1,0.1,0.1
				C77.6,108,77.7,108.4,77.9,108.5z"/>
			<path class="st1" d="M63.5,111.1c0-1,0-1.9,0-2.9c0-0.3,0.1-0.4,0.3-0.4c0.2,0,0.4,0,0.7,0c0.3,0,0.4,0.1,0.4,0.4
				c0,1.5,0,3.1,0,4.6c0,0.5,0,0.5,0.5,0.5c0.6,0,1.2,0,1.8,0c0.2,0,0.3,0.1,0.3,0.3c0,1,0.1,0.8-0.8,0.8c-0.9,0-1.8,0-2.8,0
				c-0.3,0-0.4-0.1-0.4-0.4C63.6,113.1,63.5,112.1,63.5,111.1z"/>
			<path class="st1" d="M68.7,111.1c0-1,0-1.9,0-2.9c0-0.3,0.1-0.4,0.4-0.4c0.9,0,0.7-0.1,0.7,0.8c0,1.4,0,2.8,0,4.3
				c0,0.4,0.1,0.5,0.5,0.5c0.7,0,1.4,0,2.1,0c0.2,0,0.3,0.1,0.3,0.3c0,1,0.1,0.8-0.8,0.8c-0.9,0-1.9,0-2.8,0c-0.3,0-0.4-0.1-0.4-0.4
				C68.7,113.1,68.7,112.1,68.7,111.1z"/>
			<path class="st1" d="M35.6,111.1c0-1,0-1.9,0-2.9c0-0.3,0.1-0.4,0.4-0.4c0.8,0,0.7-0.1,0.7,0.7c0,1.4,0,2.8,0,4.2
				c0,0.6,0,0.6,0.6,0.6c0.7,0,1.3,0,2,0c0.2,0,0.3,0.1,0.3,0.3c0,0.9,0.1,0.8-0.8,0.8c-0.9,0-1.8,0-2.8,0c-0.3,0-0.4-0.1-0.4-0.4
				C35.6,113.1,35.6,112.1,35.6,111.1z"/>
			<g>
				<path class="st1" d="M94.6,111.3c0,0.3,0,0.5,0,0.8c0,0.5-0.2,0.9-0.5,1.2c-0.2,0.3-0.4,0.5-0.7,0.8c-0.1,0.1-0.4,0.2-0.5,0.3
					c-0.3,0.1-0.6,0.3-1,0.3c-0.4,0.1-0.8,0-1.2,0c-0.5,0.1-0.9-0.2-1.3-0.3c-0.2,0-0.3-0.2-0.5-0.4c-0.1,0-0.1-0.1-0.2-0.1
					c-0.3,0-0.4-0.2-0.4-0.4c0-0.1-0.1-0.3-0.3-0.3c-0.3-0.2-0.2-0.6-0.4-0.8c-0.3-0.5-0.2-1-0.2-1.5c0-0.5,0.2-0.9,0.5-1.3
					c0.1-0.2,0.2-0.4,0.4-0.6c0.2-0.2,0.3-0.4,0.7-0.5c0.3-0.1,0.5-0.3,0.8-0.4c0.1,0,0.2-0.1,0.3-0.1c0.7,0,1.3,0,2,0
					c0.3,0,0.5,0.2,0.8,0.3c0.3,0.1,0.6,0.3,0.8,0.5c0.3,0.3,0.8,0.5,0.8,1C94.8,110.2,94.5,110.8,94.6,111.3z M89.1,111.3
					c0,0.8,0,0.8,0.3,1.3c0.2,0.4,0.5,0.8,1,0.8c0,0,0.1,0,0.1,0c0.4,0.3,0.6,0.3,1,0c0,0,0.1-0.1,0.2-0.1c0.3,0,0.5-0.1,0.7-0.3
					c0.5-0.4,0.7-0.9,0.8-1.5c0.1-0.5,0-0.9-0.3-1.4c-0.3-0.5-0.5-1-1.2-1c-0.1,0-0.2-0.1-0.2-0.1c-0.1,0-0.2-0.1-0.3-0.1
					c-0.6,0-1.1,0.3-1.5,0.6c-0.5,0.4-0.7,0.9-0.6,1.6C89.1,111.2,89.1,111.2,89.1,111.3z"/>
				<path class="st1" d="M134.6,107.9c0.2,0,0.6-0.1,0.8,0.3c0,0,0.1,0,0.1,0.1c0.1,0.3,0.2,0.6,0.3,0.9c0.1,0.2,0.1,0.3,0.2,0.5
					c0,0.1,0.1,0.2,0.1,0.2c0.1,0.1,0.1,0.3,0.2,0.4c0,0,0,0.1,0.1,0.1c0.1,0.4,0.2,0.7,0.4,1c0.2,0.3,0.1,0.7,0.5,0.9
					c0,0,0,0,0,0.1c0,0.4,0.1,0.7,0.3,1c0.1,0.1,0.2,0.2,0.2,0.4c0,0.2,0.1,0.4,0.1,0.7c0,0-0.2,0.1-0.4,0.1c-0.1,0-0.3,0-0.4,0
					c-0.3,0-0.5,0-0.6-0.4c0-0.2-0.2-0.4-0.3-0.6c0-0.1-0.2-0.2-0.3-0.2c-0.8,0-1.7,0-2.5,0c-0.3,0-0.4,0.2-0.4,0.5
					c0,0.4-0.3,0.7-0.7,0.7c-0.2,0-0.4,0-0.6,0c-0.1,0-0.3-0.1-0.3-0.1c0-0.1,0.1-0.3,0.1-0.4c0,0,0.1,0,0.1-0.1
					c0.1-0.3,0.2-0.7,0.3-1c0-0.1,0.1-0.2,0.2-0.4c0-0.1,0.1-0.2,0.1-0.3c0.1-0.1,0.1-0.2,0.2-0.3c0-0.1,0.1-0.1,0.1-0.2
					c0.1-0.2,0.2-0.4,0.2-0.6c0.1-0.4,0.2-0.7,0.4-1.1c0.1-0.3,0.3-0.6,0.4-0.8c0,0,0.1-0.1,0.1-0.1c-0.1-0.4,0.3-0.7,0.3-1
					c0-0.1,0.1-0.1,0.2-0.1C134.2,107.9,134.4,107.9,134.6,107.9z M134.6,112.1C134.6,112.2,134.6,112.2,134.6,112.1
					c0.2,0,0.5,0,0.7,0c0.1,0,0.3-0.1,0.3-0.1c0-0.1,0-0.3-0.1-0.4c0-0.1-0.1-0.1-0.1-0.2c0-0.6-0.4-1.1-0.6-1.7
					c0-0.1-0.2-0.1-0.2-0.1c-0.1,0.3-0.3,0.6-0.3,0.9c-0.1,0.4-0.4,0.8-0.3,1.2c0,0-0.1,0.1-0.1,0.1c-0.2,0.2-0.1,0.3,0.1,0.3
					C134.1,112.2,134.3,112.1,134.6,112.1z"/>
				<path class="st1" d="M116,111.1c0-0.9,0-1.9,0-2.8c0-0.3,0.1-0.4,0.4-0.4c0.6,0,1.3,0,1.9,0c0.2,0,0.4,0,0.6,0.2
					c0.1,0.1,0.3,0.1,0.5,0.1c0.4-0.1,0.6,0.1,0.8,0.4c0.3,0.4,0.6,0.8,0.6,1.4c0,0.6-0.3,0.9-0.7,1.3c-0.1,0.2-0.4,0.2-0.6,0.4
					c-0.1,0-0.1,0.1-0.1,0.2c0.1,0.2,0.1,0.5,0.3,0.6c0.2,0.4,0.5,0.7,0.7,1c0.2,0.2,0.3,0.5,0.3,0.8c0,0.1-0.1,0.2-0.2,0.2
					c-0.3,0-0.7,0.1-1,0c-0.2,0-0.4-0.2-0.5-0.4c-0.2-0.4-0.4-0.8-0.6-1.1c-0.2-0.3-0.4-0.7-0.6-0.9c-0.1-0.1-0.5-0.1-0.7-0.1
					c-0.1,0-0.2,0.2-0.2,0.3c0,0.6,0,1.2,0,1.8c0,0.3-0.1,0.4-0.4,0.4c-0.8,0-0.7,0.1-0.7-0.7C116,112.9,116,112,116,111.1z
					 M117.1,110c0,0.1,0,0.2,0,0.3c-0.1,0.4,0.1,0.6,0.4,0.7c0.3,0.1,0.7,0,1,0c0.2,0,0.4-0.1,0.5-0.2c0.2-0.2,0.4-0.3,0.5-0.5
					c0.1-0.7-0.4-1.2-1.1-1.2c-0.2,0-0.4,0-0.7,0c-0.1,0-0.2,0.1-0.3,0.2C117,109.3,117.1,109.7,117.1,110z"/>
				<path class="st1" d="M106,114.3c0.1-0.2,0.1-0.4,0.2-0.6c0-0.1,0.1-0.2,0.2-0.3c0,0,0.1,0,0.1-0.1c0.1-0.3,0.2-0.6,0.3-0.9
					c0.2-0.4,0.4-0.7,0.5-1.1c0.1-0.2,0.1-0.5,0.3-0.7c0.1-0.1,0.2-0.3,0.2-0.5c0-0.4,0.3-0.7,0.4-1.1c0.1-0.3,0.2-0.6,0.3-0.9
					c0-0.1,0.1-0.1,0.2-0.1c0.4,0,0.8,0,1.1,0c0.1,0,0.2,0.1,0.2,0.2c0,0.2,0.1,0.4,0.2,0.6c0.2,0.3,0.2,0.6,0.4,1
					c0.1,0.3,0.3,0.7,0.5,1c0,0.1,0.1,0.2,0.1,0.2c0.1,0.1,0.1,0.2,0.2,0.4c0,0,0.1,0,0.1,0.1c0.1,0.4,0.2,0.7,0.3,1.1
					c0,0,0,0.1,0,0.1c0.3,0.2,0.2,0.6,0.4,0.9c0.1,0.3,0.3,0.6,0.4,0.9c-0.1,0-0.2,0-0.3,0.1c-0.3,0-0.6,0-0.9,0
					c-0.3,0-0.5,0-0.5-0.4c0-0.2-0.3-0.4-0.3-0.7c0,0-0.2-0.1-0.3-0.1c-0.8,0-1.6,0-2.4,0c-0.2,0-0.5,0.4-0.6,0.6
					c-0.1,0.5-0.1,0.5-0.6,0.5c-0.3,0-0.7,0-1,0C106,114.4,106,114.3,106,114.3z M109.1,109.6c0,0.2-0.1,0.3-0.1,0.5
					c0,0.1,0,0.3-0.1,0.3c-0.3,0.1-0.2,0.4-0.2,0.6c0,0.1,0,0.2-0.1,0.3c-0.3,0.2-0.2,0.5-0.2,0.7c0,0.2,0.1,0.3,0.3,0.3
					c0.4,0,0.8,0,1.2,0c0.2,0,0.4-0.1,0.3-0.3c-0.1-0.4-0.2-0.8-0.3-1.1c0,0,0,0-0.1,0c-0.1-0.1-0.2-0.2-0.2-0.4
					C109.7,110,109.5,109.8,109.1,109.6z"/>
				<path class="st1" d="M128.6,114.7c-0.2,0-0.4,0-0.6,0c-0.2,0-0.4-0.1-0.6-0.2c-0.1,0-0.1-0.1-0.2-0.1c-0.5,0-0.8-0.4-1.1-0.7
					c-0.3-0.3-0.6-0.7-0.8-1c-0.1-0.1,0-0.2-0.1-0.3c0-0.2,0-0.4-0.2-0.6c-0.1-0.1-0.1-1,0.1-1.1c0,0,0.1-0.1,0.1-0.2
					c0-0.6,0.3-1,0.6-1.4c0.2-0.3,0.5-0.5,0.7-0.7c0.2-0.2,0.6-0.2,0.8-0.3c0.6-0.4,1.3-0.2,2-0.2c0.2,0,0.4,0,0.6,0.2
					c0.2,0.2,0.5,0.2,0.8,0.4c0.1,0,0.2,0.1,0.2,0.2c0,0.1,0,0.2-0.1,0.3c-0.1,0.2-0.3,0.3-0.4,0.4c-0.2,0.2-0.3,0.2-0.5,0
					c0,0,0-0.1-0.1-0.1c-0.4,0-0.8-0.5-1.2-0.3c-0.6,0.2-1.2,0.3-1.6,0.9c0,0.1,0,0.2-0.1,0.2c0,0.1,0,0.2-0.1,0.2
					c-0.6,0.5-0.3,1.2-0.2,1.7c0.1,0.5,0.4,1,0.9,1.3c0.1,0,0.2,0,0.2,0.1c0.1,0.1,0.3,0.1,0.4,0.2c0.2,0.1,0.9,0.1,1.1,0
					c0.1-0.1,0.2-0.1,0.3-0.2c0.1-0.1,0.2-0.1,0.3-0.2c0.2-0.2,0.4-0.2,0.5,0c0.1,0.1,0.3,0.3,0.4,0.4c0.1,0.1,0.1,0.2,0.1,0.3
					c0,0.1-0.1,0.1-0.2,0.2c-0.3,0.2-0.6,0.3-0.9,0.5c-0.1,0.1-0.3,0.1-0.4,0.1C129.1,114.7,128.9,114.7,128.6,114.7
					C128.6,114.7,128.6,114.7,128.6,114.7z"/>
				<path class="st1" d="M84.5,114.7c-0.2,0-0.4,0-0.6,0c-0.4-0.1-0.9-0.1-1.3-0.3c-0.3-0.1-0.5-0.4-0.7-0.6c-0.4-0.3-0.5-0.7-0.8-1
					c-0.1-0.1,0-0.2-0.1-0.3c0-0.2,0-0.4-0.2-0.6c-0.2-0.1-0.1-0.9,0.1-1.1c0,0,0.1-0.1,0.1-0.2c-0.1-0.4,0.2-0.7,0.3-1.1
					c0.1-0.3,0.4-0.5,0.6-0.8c0.2-0.2,0.4-0.3,0.6-0.5c0.1-0.1,0.2,0,0.3-0.1c0.2-0.1,0.3-0.1,0.5-0.2c0.1,0,0.2-0.1,0.3-0.1
					c0.5,0,0.9,0,1.4,0c0.2,0,0.4,0,0.6,0.2c0.2,0.2,0.5,0.2,0.8,0.4c0.1,0,0.2,0.1,0.2,0.2c0,0.1,0,0.2-0.1,0.3
					c-0.1,0.2-0.3,0.3-0.4,0.4c-0.2,0.2-0.3,0.1-0.5,0c-0.3-0.2-0.7-0.5-1.1-0.4c-0.1,0-0.3,0.1-0.4,0.2c-0.1,0-0.2,0.1-0.2,0.1
					c-0.6-0.1-0.9,0.4-1.1,0.7c-0.4,0.6-0.5,1.4-0.3,2.1c0.1,0.4,0.3,0.9,0.8,1.1c0.5,0.3,0.9,0.6,1.5,0.5c0.1,0,0.3-0.1,0.4-0.2
					c0.3-0.1,0.5-0.3,0.8-0.4c0.2,0,0.4,0.2,0.6,0.3c0.1,0.1,0.2,0.2,0.2,0.3c0,0.2,0,0.3-0.1,0.5c-0.1,0.1-0.3,0.2-0.5,0.3
					c-0.4,0.1-0.7,0.5-1.2,0.3C84.8,114.7,84.7,114.7,84.5,114.7C84.5,114.7,84.5,114.7,84.5,114.7z"/>
				<path class="st1" d="M95.5,113.8c0.3-0.2,0.5-0.4,0.6-0.6c0.2-0.2,0.3-0.2,0.6,0c0.5,0.4,1.2,0.6,1.8,0.4
					c0.2-0.1,0.5-0.3,0.5-0.6c0-0.2,0-0.3,0-0.5c0-0.2-0.1-0.3-0.3-0.4c-0.3-0.1-0.6-0.3-1-0.5c0,0-0.1,0-0.1,0
					c-0.4-0.1-0.7-0.2-1.1-0.4c-0.1,0-0.2-0.2-0.3-0.3c-0.3-0.2-0.6-1.3-0.4-1.6c0.3-0.4,0.5-0.9,0.9-1.2c0.3-0.2,0.6-0.3,1-0.3
					c0.3-0.1,0.7,0,1,0c0.3,0,0.6-0.1,0.8,0.2c0.2,0.2,0.5,0.2,0.8,0.4c-0.3,0.3-0.4,0.6-0.7,0.7c-0.2,0.1-0.5,0.1-0.7,0
					c-0.2-0.1-0.3-0.2-0.5-0.2c-0.2,0-0.3,0-0.5,0c-0.6,0-0.9,0.3-0.9,0.9c0,0.3,0.3,0.4,0.5,0.5c0.3,0.2,0.8,0.2,1.1,0.4
					c0.3,0.1,0.5,0.3,0.8,0.4c0,0,0.1,0.1,0.1,0.1c0.3,0,0.3,0.3,0.4,0.4c0.4,0.4,0.2,0.9,0.2,1.4c0.1,0.4-0.2,0.5-0.4,0.8
					c-0.1,0.2-0.3,0.3-0.5,0.5c0,0,0,0.1-0.1,0.1c-0.7,0.2-1.5,0.4-2.2,0.3c-0.3-0.1-0.6-0.3-0.9-0.4
					C96,114.1,95.8,113.9,95.5,113.8z"/>
				<path class="st1" d="M103.6,107.9c0.7,0,1.5,0,2.2,0c0.3,0,0.4,0.1,0.4,0.3c0,0.8,0.1,0.7-0.7,0.7c-0.2,0-0.4,0-0.6,0
					c-0.5,0-0.7,0.2-0.7,0.7c0,1.4,0,2.9,0,4.3c0,0.3-0.1,0.4-0.4,0.4c-0.8,0-0.7,0.1-0.7-0.7c0-1.4,0-2.7,0-4.1
					c0-0.4-0.3-0.7-0.7-0.7c-0.3,0-0.7,0-1,0c-0.2,0-0.3-0.1-0.3-0.3c0-1-0.1-0.8,0.7-0.8C102.4,107.9,103,107.9,103.6,107.9z"/>
				<path class="st1" d="M123.7,111.1c0,1,0,2,0,2.9c0,0.3-0.1,0.4-0.4,0.4c-1.2,0-1,0.2-1-1c0-1.7,0-3.5,0-5.2
					c0-0.3,0.1-0.4,0.4-0.4c0.9,0,0.9,0,0.9,0.9C123.7,109.6,123.7,110.4,123.7,111.1z"/>
			</g>
			<path class="st1" d="M60.6,111.1c0-1,0-1.9,0-2.9c0-0.3,0.1-0.4,0.4-0.4c0.9,0,0.8-0.1,0.8,0.8c0,1.8,0,3.6,0,5.4
				c0,0.5,0,0.5-0.5,0.5c-0.7,0-0.7,0.1-0.7-0.7C60.6,112.9,60.6,112,60.6,111.1z"/>
		</g>
		<path class="st1" d="M123.7,53.6c0.3,0,0.5,0,0.8,0c0.1,0,0.1,0.1,0.2,0.1c0,0.1-0.1,0.1-0.1,0.2c-0.2,0.3-0.5,0.5-0.7,0.8
			c-0.2,0.2-0.5,0.5-0.7,0.7c-0.2,0.2-0.4,0.4-0.5,0.7c-0.1,0.2-0.3,0.4-0.5,0.4c-0.3,0.1-0.7,0-1.1,0c0,0-0.1-0.1-0.1-0.1
			c0-0.1,0-0.2,0.1-0.3c0.1-0.2,0.3-0.4,0.5-0.6c0.1-0.1,0.2-0.3,0.3-0.4c0.3-0.4,0.5-0.8,0.8-1.2c0.1-0.1,0.2-0.1,0.3-0.2
			C123.2,53.6,123.5,53.6,123.7,53.6C123.7,53.6,123.7,53.6,123.7,53.6z"/>
		<g>
			<g>
				<path class="st1" d="M10.7,95H7.1v8H2.6V81.1h8.1c2.6,0,4.6,0.6,6,1.7c1.4,1.1,2.1,2.8,2.1,4.9c0,1.5-0.3,2.7-1,3.7
					c-0.6,1-1.6,1.8-2.9,2.4l4.7,8.9v0.2h-4.8L10.7,95z M7.1,91.3h3.6c1.1,0,2-0.3,2.6-0.9c0.6-0.6,0.9-1.4,0.9-2.4
					c0-1-0.3-1.8-0.9-2.4c-0.6-0.6-1.5-0.9-2.7-0.9H7.1V91.3z"/>
				<path class="st1" d="M35.4,93.5h-8.6v5.8h10.1v3.6H22.2V81.1h14.6v3.6H26.7V90h8.6V93.5z"/>
				<path class="st1" d="M56.8,100.2c-0.8,1-2,1.7-3.4,2.3c-1.5,0.5-3.1,0.8-4.9,0.8c-1.9,0-3.5-0.4-5-1.2c-1.4-0.8-2.5-2-3.3-3.6
					C39.4,96.9,39,95,39,92.9v-1.5c0-2.2,0.4-4.1,1.1-5.7c0.7-1.6,1.8-2.8,3.2-3.7c1.4-0.8,3-1.3,4.9-1.3c2.6,0,4.6,0.6,6.1,1.9
					c1.5,1.2,2.3,3,2.6,5.4h-4.4c-0.2-1.2-0.6-2.2-1.3-2.7c-0.7-0.6-1.6-0.9-2.8-0.9c-1.5,0-2.7,0.6-3.5,1.7
					c-0.8,1.1-1.2,2.9-1.2,5.1v1.4c0,2.3,0.4,4,1.3,5.2c0.9,1.2,2.1,1.8,3.8,1.8c1.7,0,2.9-0.4,3.6-1.1v-3.8h-4.1v-3.3h8.6V100.2z"
					/>
				<path class="st1" d="M65.2,103h-4.5V81.1h4.5V103z"/>
				<path class="st1" d="M87.3,92.5c0,2.1-0.4,4-1.1,5.7c-0.8,1.6-1.8,2.9-3.3,3.7c-1.4,0.9-3,1.3-4.9,1.3c-1.8,0-3.4-0.4-4.8-1.3
					c-1.4-0.9-2.5-2.1-3.3-3.7c-0.8-1.6-1.2-3.5-1.2-5.6v-1.1c0-2.1,0.4-4,1.2-5.7c0.8-1.6,1.9-2.9,3.3-3.8c1.4-0.9,3-1.3,4.9-1.3
					c1.8,0,3.4,0.4,4.9,1.3c1.4,0.9,2.5,2.1,3.3,3.8c0.8,1.6,1.2,3.5,1.2,5.7V92.5z M82.8,91.6c0-2.3-0.4-4-1.2-5.2
					c-0.8-1.2-2-1.8-3.5-1.8c-1.5,0-2.7,0.6-3.5,1.8c-0.8,1.2-1.2,2.9-1.2,5.2v1.1c0,2.2,0.4,4,1.2,5.2c0.8,1.2,2,1.8,3.5,1.8
					c1.5,0,2.7-0.6,3.5-1.8c0.8-1.2,1.2-2.9,1.2-5.2V91.6z"/>
				<path class="st1" d="M108.3,103h-4.5l-8.8-14.4V103h-4.5V81.1h4.5l8.8,14.4V81.1h4.5V103z"/>
				<path class="st1" d="M124.6,98.5h-7.9l-1.5,4.5h-4.8l8.1-21.8h4.2l8.2,21.8h-4.8L124.6,98.5z M117.9,94.8h5.5l-2.7-8.2
					L117.9,94.8z"/>
				<path class="st1" d="M137.4,99.4h9.6v3.6h-14V81.1h4.5V99.4z"/>
			</g>
		</g>
	</g>
</g>
</svg>
