<?xml version="1.0" encoding="utf-8"?>
<!-- Generator: Adobe Illustrator 27.5.0, SVG Export Plug-In . SVG Version: 6.00 Build 0)  -->
<svg version="1.1" id="Capa_1" xmlns="http://www.w3.org/2000/svg" xmlns:xlink="http://www.w3.org/1999/xlink" x="0px" y="0px"
	 width="23.1px" height="55.1px" viewBox="0 0 23.1 55.1" style="enable-background:new 0 0 23.1 55.1;" xml:space="preserve">
<style type="text/css">
	.st0{fill:#FFFFFF;}
</style>
<g>
	<path class="st0" d="M12,0.2h-1C5,0.2,0.1,5,0.1,11.1v14.4c0,6,4.9,10.9,10.9,10.9h1c6,0,10.9-4.9,10.9-10.9V11.1
		C22.9,5,18.1,0.2,12,0.2z M13.9,14.9c0,1.3-1.1,2.3-2.3,2.3s-2.3-1.1-2.3-2.3v-6c0-1.3,1.1-2.3,2.3-2.3s2.3,1.1,2.3,2.3V14.9z"/>
	<g>
		<g>
			<path class="st0" d="M11.7,55.2c-0.4,0-0.8-0.1-1-0.4l-8.1-8.1c-0.6-0.6-0.6-1.5,0-2.1C3.1,44,4,44,4.6,44.6l7,7l6.8-6.8
				c0.6-0.6,1.5-0.6,2.1,0c0.6,0.6,0.6,1.5,0,2.1l-7.8,7.8C12.4,55,12,55.2,11.7,55.2z"/>
		</g>
	</g>
</g>
</svg>
