<?xml version="1.0" encoding="utf-8"?>
<!-- Generator: Adobe Illustrator 27.6.1, SVG Export Plug-In . SVG Version: 6.00 Build 0)  -->
<svg version="1.1" id="Capa_1" xmlns="http://www.w3.org/2000/svg" xmlns:xlink="http://www.w3.org/1999/xlink" x="0px" y="0px"
	 width="320px" height="26px" viewBox="0 0 320 26" style="enable-background:new 0 0 320 26;" xml:space="preserve">
<style type="text/css">
	.st0{fill:#121448;}
</style>
<g>
	<g>
		<g>
			<path class="st0" d="M305.2,13.1c0,0.4-0.1,0.8-0.4,1l-8.1,8.1c-0.6,0.6-1.5,0.6-2.1,0c-0.6-0.6-0.6-1.5,0-2.1l7-7l-6.8-6.8
				c-0.6-0.6-0.6-1.5,0-2.1c0.6-0.6,1.5-0.6,2.1,0l7.8,7.8C305.1,12.3,305.2,12.7,305.2,13.1z"/>
		</g>
	</g>
</g>
<g>
	<g>
		<g>
			<path class="st0" d="M318.2,13.1c0,0.4-0.1,0.8-0.4,1l-8.1,8.1c-0.6,0.6-1.5,0.6-2.1,0c-0.6-0.6-0.6-1.5,0-2.1l7-7l-6.8-6.8
				c-0.6-0.6-0.6-1.5,0-2.1c0.6-0.6,1.5-0.6,2.1,0l7.8,7.8C318.1,12.3,318.2,12.7,318.2,13.1z"/>
		</g>
	</g>
</g>
<g>
	<g>
		<g>
			<path class="st0" d="M15.2,13.1c0,0.4,0.1,0.8,0.4,1l8.1,8.1c0.6,0.6,1.5,0.6,2.1,0c0.6-0.6,0.6-1.5,0-2.1l-7-7l6.8-6.8
				c0.6-0.6,0.6-1.5,0-2.1c-0.6-0.6-1.5-0.6-2.1,0L15.6,12C15.3,12.3,15.2,12.7,15.2,13.1z"/>
		</g>
	</g>
</g>
<g>
	<g>
		<g>
			<path class="st0" d="M2.2,13.1c0,0.4,0.1,0.8,0.4,1l8.1,8.1c0.6,0.6,1.5,0.6,2.1,0c0.6-0.6,0.6-1.5,0-2.1l-7-7l6.8-6.8
				c0.6-0.6,0.6-1.5,0-2.1c-0.6-0.6-1.5-0.6-2.1,0L2.6,12C2.3,12.3,2.2,12.7,2.2,13.1z"/>
		</g>
	</g>
</g>
<g>
	<g>
		<path class="st0" d="M35.5,4v16.8h-2.9V4H35.5z M34.3,20.8v-2.7h3.6c0.8,0,1.6-0.1,2.3-0.4c0.7-0.2,1.3-0.6,1.8-1.1
			c0.5-0.5,0.9-1.1,1.2-1.8c0.3-0.7,0.4-1.6,0.4-2.5c0-0.9-0.1-1.8-0.4-2.5s-0.7-1.3-1.2-1.8c-0.5-0.5-1.1-0.8-1.8-1.1
			c-0.7-0.2-1.5-0.4-2.3-0.4h-3.6V4H38c1.7,0,3.2,0.3,4.5,1c1.3,0.7,2.3,1.7,3,2.9c0.7,1.3,1.1,2.7,1.1,4.4s-0.4,3.2-1.1,4.4
			c-0.7,1.3-1.7,2.2-3,2.9c-1.3,0.7-2.8,1-4.5,1H34.3z"/>
		<path class="st0" d="M51,20.3c-0.9-0.5-1.5-1.2-2-2c-0.5-0.9-0.7-1.9-0.7-3c0-1.2,0.2-2.2,0.7-3c0.5-0.9,1.1-1.5,2-2
			c0.9-0.5,1.9-0.7,3-0.7s2.2,0.2,3,0.7c0.8,0.4,1.4,1.1,1.9,1.9c0.4,0.8,0.7,1.9,0.7,3c0,0.1,0,0.3,0,0.4s0,0.2,0,0.3h-9.7v-1.8
			h7.5l-0.8,1.1c0-0.1,0.1-0.2,0.2-0.4s0.1-0.3,0.1-0.4c0-0.6-0.1-1.1-0.3-1.5c-0.2-0.4-0.6-0.8-1-1c-0.4-0.2-0.9-0.4-1.4-0.4
			c-0.7,0-1.2,0.1-1.7,0.4s-0.8,0.7-1.1,1.2s-0.4,1.2-0.4,2c0,0.8,0.1,1.5,0.4,2c0.2,0.6,0.6,1,1.1,1.3c0.5,0.3,1,0.4,1.7,0.4
			c0.7,0,1.3-0.1,1.8-0.4c0.5-0.3,1-0.7,1.3-1.3l2.2,0.9c-0.6,1-1.3,1.7-2.2,2.2c-0.9,0.5-2,0.7-3.3,0.7C52.9,21,51.9,20.8,51,20.3z
			"/>
		<path class="st0" d="M63.7,18.2c0.4,0.3,0.7,0.5,1.1,0.6c0.4,0.1,0.7,0.2,1.1,0.2c0.5,0,0.8-0.1,1.1-0.3c0.3-0.2,0.4-0.5,0.4-0.9
			c0-0.3-0.1-0.6-0.3-0.8c-0.2-0.2-0.5-0.4-0.9-0.6s-0.8-0.3-1.3-0.5c-0.5-0.2-1-0.4-1.5-0.7s-0.9-0.6-1.2-1c-0.3-0.4-0.5-1-0.5-1.6
			c0-0.7,0.2-1.2,0.5-1.7c0.3-0.4,0.8-0.8,1.4-1s1.2-0.3,1.9-0.3c0.6,0,1.2,0.1,1.7,0.3c0.5,0.2,1,0.4,1.5,0.7
			c0.4,0.3,0.8,0.6,1.1,1L68.4,13c-0.4-0.4-0.8-0.8-1.3-1.1c-0.5-0.3-1-0.4-1.6-0.4c-0.4,0-0.7,0.1-0.9,0.2
			c-0.2,0.2-0.4,0.4-0.4,0.7c0,0.3,0.1,0.5,0.3,0.7c0.2,0.2,0.5,0.4,0.9,0.5c0.4,0.2,0.8,0.3,1.2,0.5c0.6,0.2,1.2,0.5,1.7,0.8
			c0.5,0.3,0.9,0.6,1.2,1.1c0.3,0.4,0.5,1,0.5,1.6c0,1-0.4,1.9-1.1,2.5s-1.7,0.9-2.9,0.9c-0.8,0-1.4-0.1-2.1-0.3
			c-0.6-0.2-1.2-0.5-1.7-0.9s-0.9-0.8-1.2-1.2l1.5-1.5C62.9,17.6,63.3,17.9,63.7,18.2z"/>
		<path class="st0" d="M74.9,2.1v18.7h-2.6V2.1H74.9z"/>
		<path class="st0" d="M78.6,4.2c0.3-0.3,0.7-0.5,1.1-0.5c0.5,0,0.9,0.2,1.2,0.5c0.3,0.3,0.5,0.7,0.5,1.1c0,0.4-0.2,0.8-0.5,1.1
			C80.6,6.8,80.2,7,79.7,7c-0.4,0-0.8-0.2-1.1-0.5s-0.5-0.7-0.5-1.1C78.1,4.9,78.2,4.5,78.6,4.2z M81,9.8v11h-2.5v-11H81z"/>
		<path class="st0" d="M84.1,12.2V9.8h10.1l-6.3,8.6h5.7v2.4H83.3l6.4-8.6H84.1z"/>
		<path class="st0" d="M98.1,18.3c0.2,0.3,0.4,0.5,0.7,0.6c0.3,0.1,0.7,0.2,1.1,0.2c0.5,0,1-0.1,1.4-0.3c0.4-0.2,0.8-0.5,1-0.9
			c0.3-0.4,0.4-0.9,0.4-1.4l0.4,1.4c0,0.7-0.2,1.3-0.6,1.8c-0.4,0.5-0.9,0.8-1.5,1.1c-0.6,0.2-1.2,0.3-1.9,0.3
			c-0.7,0-1.3-0.1-1.9-0.4s-1.1-0.7-1.4-1.2c-0.4-0.5-0.5-1.2-0.5-1.9c0-1.1,0.4-1.9,1.1-2.6c0.8-0.6,1.8-0.9,3.2-0.9
			c0.7,0,1.4,0.1,1.9,0.2c0.5,0.2,1,0.3,1.3,0.6c0.4,0.2,0.6,0.4,0.7,0.6v1.3c-0.5-0.4-1-0.6-1.6-0.8c-0.6-0.2-1.2-0.2-1.8-0.2
			c-0.5,0-1,0.1-1.3,0.2s-0.6,0.3-0.8,0.6c-0.2,0.2-0.3,0.5-0.3,0.9C97.8,17.7,97.9,18.1,98.1,18.3z M96,10.8
			c0.5-0.3,1.1-0.6,1.9-0.9s1.7-0.4,2.7-0.4c0.9,0,1.7,0.1,2.4,0.4c0.7,0.3,1.2,0.7,1.6,1.2c0.4,0.5,0.6,1.1,0.6,1.9v7.9h-2.5v-7.4
			c0-0.4-0.1-0.6-0.2-0.9s-0.3-0.4-0.5-0.6c-0.2-0.1-0.5-0.2-0.7-0.3c-0.3-0.1-0.6-0.1-0.9-0.1c-0.5,0-1,0.1-1.5,0.2
			c-0.5,0.1-0.8,0.3-1.2,0.4s-0.6,0.3-0.7,0.4L96,10.8z"/>
		<path class="st0" d="M118.5,4v16.8h-2.8V4H118.5z M116.8,10.5h12v2.6h-12V10.5z M129.8,4v16.8H127V4H129.8z"/>
		<path class="st0" d="M133.3,12.3c0.5-0.9,1.2-1.5,2.1-2c0.9-0.5,1.9-0.7,3-0.7c1.1,0,2.1,0.2,3,0.7c0.9,0.5,1.6,1.2,2.1,2
			c0.5,0.9,0.8,1.9,0.8,3c0,1.1-0.3,2.1-0.8,3c-0.5,0.9-1.2,1.6-2.1,2c-0.9,0.5-1.9,0.7-3,0.7c-1.1,0-2.2-0.2-3-0.7
			c-0.9-0.5-1.6-1.2-2.1-2c-0.5-0.9-0.8-1.9-0.8-3C132.5,14.1,132.8,13.1,133.3,12.3z M135.6,17.1c0.3,0.5,0.7,0.9,1.2,1.2
			s1.1,0.4,1.7,0.4c0.6,0,1.2-0.1,1.7-0.4s0.9-0.7,1.2-1.2c0.3-0.5,0.4-1.1,0.4-1.8c0-0.7-0.1-1.3-0.4-1.8c-0.3-0.5-0.7-0.9-1.2-1.2
			s-1.1-0.4-1.7-0.4c-0.6,0-1.2,0.1-1.7,0.4s-0.9,0.7-1.2,1.2c-0.3,0.5-0.4,1.1-0.4,1.8C135.2,16,135.3,16.6,135.6,17.1z"/>
		<path class="st0" d="M149.4,20.8h-2.6v-11h2.6V20.8z M152,12.1c-0.2-0.1-0.5-0.1-0.8-0.1c-0.4,0-0.8,0.1-1.1,0.3
			c-0.3,0.2-0.5,0.5-0.6,0.9c-0.1,0.4-0.2,0.9-0.2,1.4l-0.9-0.5c0-0.9,0.2-1.7,0.5-2.3c0.3-0.7,0.8-1.2,1.3-1.6
			c0.5-0.4,1.1-0.6,1.6-0.6c0.4,0,0.8,0.1,1.1,0.2s0.6,0.3,0.9,0.6l-1.2,2.2C152.5,12.3,152.2,12.2,152,12.1z"/>
		<path class="st0" d="M156.1,4.2c0.3-0.3,0.7-0.5,1.1-0.5c0.5,0,0.9,0.2,1.2,0.5c0.3,0.3,0.5,0.7,0.5,1.1c0,0.4-0.2,0.8-0.5,1.1
			c-0.3,0.3-0.7,0.5-1.2,0.5c-0.4,0-0.8-0.2-1.1-0.5s-0.5-0.7-0.5-1.1C155.6,4.9,155.8,4.5,156.1,4.2z M158.5,9.8v11H156v-11H158.5z
			"/>
		<path class="st0" d="M161.7,12.2V9.8h10.1l-6.3,8.6h5.7v2.4h-10.3l6.4-8.6H161.7z"/>
		<path class="st0" d="M173.3,12.3c0.5-0.9,1.2-1.5,2.1-2c0.9-0.5,1.9-0.7,3-0.7s2.1,0.2,3,0.7c0.9,0.5,1.6,1.2,2.1,2
			c0.5,0.9,0.8,1.9,0.8,3c0,1.1-0.3,2.1-0.8,3c-0.5,0.9-1.2,1.6-2.1,2c-0.9,0.5-1.9,0.7-3,0.7s-2.2-0.2-3-0.7
			c-0.9-0.5-1.6-1.2-2.1-2c-0.5-0.9-0.8-1.9-0.8-3C172.6,14.1,172.8,13.1,173.3,12.3z M175.7,17.1c0.3,0.5,0.7,0.9,1.2,1.2
			s1.1,0.4,1.7,0.4c0.6,0,1.2-0.1,1.7-0.4s0.9-0.7,1.2-1.2c0.3-0.5,0.4-1.1,0.4-1.8c0-0.7-0.1-1.3-0.4-1.8c-0.3-0.5-0.7-0.9-1.2-1.2
			s-1.1-0.4-1.7-0.4c-0.6,0-1.2,0.1-1.7,0.4s-0.9,0.7-1.2,1.2c-0.3,0.5-0.4,1.1-0.4,1.8C175.2,16,175.4,16.6,175.7,17.1z"/>
		<path class="st0" d="M193.5,12.2c-0.3-0.4-0.9-0.6-1.6-0.6c-0.5,0-0.9,0.1-1.3,0.3c-0.4,0.2-0.7,0.5-0.9,0.9s-0.3,0.8-0.3,1.3v6.7
			h-2.6v-11h2.6v1.7c0.4-0.7,0.8-1.1,1.4-1.5c0.6-0.3,1.2-0.5,2-0.5c1.2,0,2.2,0.4,2.9,1.1c0.7,0.8,1,1.8,1,3.1v7H194v-6.7
			C194,13.3,193.8,12.6,193.5,12.2z"/>
		<path class="st0" d="M204.7,9.8V12h-6.3V9.8H204.7z M202.9,5.9v14.9h-2.6V5.9H202.9z"/>
		<path class="st0" d="M208.4,18.3c0.2,0.3,0.4,0.5,0.7,0.6c0.3,0.1,0.7,0.2,1.1,0.2c0.5,0,1-0.1,1.4-0.3c0.4-0.2,0.8-0.5,1-0.9
			c0.3-0.4,0.4-0.9,0.4-1.4l0.4,1.4c0,0.7-0.2,1.3-0.6,1.8c-0.4,0.5-0.9,0.8-1.5,1.1c-0.6,0.2-1.2,0.3-1.9,0.3
			c-0.7,0-1.3-0.1-1.9-0.4c-0.6-0.3-1.1-0.7-1.4-1.2c-0.4-0.5-0.5-1.2-0.5-1.9c0-1.1,0.4-1.9,1.1-2.6c0.8-0.6,1.8-0.9,3.2-0.9
			c0.7,0,1.4,0.1,1.9,0.2c0.5,0.2,1,0.3,1.3,0.6c0.4,0.2,0.6,0.4,0.7,0.6v1.3c-0.5-0.4-1-0.6-1.6-0.8c-0.6-0.2-1.2-0.2-1.8-0.2
			c-0.5,0-1,0.1-1.3,0.2s-0.6,0.3-0.8,0.6c-0.2,0.2-0.3,0.5-0.3,0.9C208.1,17.7,208.2,18.1,208.4,18.3z M206.3,10.8
			c0.5-0.3,1.1-0.6,1.9-0.9s1.7-0.4,2.7-0.4c0.9,0,1.7,0.1,2.4,0.4c0.7,0.3,1.2,0.7,1.6,1.2c0.4,0.5,0.6,1.1,0.6,1.9v7.9H213v-7.4
			c0-0.4-0.1-0.6-0.2-0.9s-0.3-0.4-0.5-0.6s-0.5-0.2-0.7-0.3c-0.3-0.1-0.6-0.1-0.9-0.1c-0.5,0-1,0.1-1.5,0.2
			c-0.5,0.1-0.8,0.3-1.2,0.4c-0.3,0.2-0.6,0.3-0.7,0.4L206.3,10.8z"/>
		<path class="st0" d="M221.2,2.1v18.7h-2.6V2.1H221.2z"/>
		<path class="st0" d="M240.3,20.8h-2.6v-6.7c0-0.8-0.1-1.5-0.4-1.9c-0.3-0.4-0.8-0.6-1.4-0.6c-0.4,0-0.8,0.1-1.1,0.3
			c-0.3,0.2-0.6,0.5-0.8,0.8c-0.2,0.4-0.3,0.8-0.3,1.3v6.7h-2.6v-6.7c0-0.8-0.1-1.5-0.4-1.9c-0.3-0.4-0.8-0.6-1.4-0.6
			c-0.4,0-0.8,0.1-1.2,0.3c-0.3,0.2-0.6,0.5-0.8,0.8c-0.2,0.4-0.3,0.8-0.3,1.3v6.7h-2.5v-11h2.5v1.6c0.3-0.6,0.7-1.1,1.3-1.4
			c0.5-0.3,1.1-0.5,1.8-0.5c0.8,0,1.5,0.2,2,0.5s0.9,0.8,1.2,1.5c0.4-0.6,0.9-1.1,1.5-1.5s1.3-0.5,2-0.5c0.8,0,1.4,0.2,2,0.5
			c0.5,0.3,0.9,0.8,1.2,1.5c0.3,0.6,0.4,1.4,0.4,2.3V20.8z"/>
		<path class="st0" d="M245.4,20.3c-0.9-0.5-1.5-1.2-2-2c-0.5-0.9-0.7-1.9-0.7-3c0-1.2,0.2-2.2,0.7-3c0.5-0.9,1.1-1.5,2-2
			c0.9-0.5,1.9-0.7,3-0.7c1.2,0,2.2,0.2,3,0.7c0.8,0.4,1.4,1.1,1.9,1.9c0.4,0.8,0.7,1.9,0.7,3c0,0.1,0,0.3,0,0.4c0,0.1,0,0.2,0,0.3
			h-9.7v-1.8h7.5l-0.8,1.1c0-0.1,0.1-0.2,0.2-0.4c0.1-0.2,0.1-0.3,0.1-0.4c0-0.6-0.1-1.1-0.3-1.5c-0.2-0.4-0.6-0.8-1-1
			c-0.4-0.2-0.9-0.4-1.4-0.4c-0.7,0-1.2,0.1-1.7,0.4c-0.5,0.3-0.8,0.7-1.1,1.2c-0.2,0.5-0.4,1.2-0.4,2c0,0.8,0.1,1.5,0.4,2
			c0.2,0.6,0.6,1,1.1,1.3s1,0.4,1.7,0.4c0.7,0,1.3-0.1,1.8-0.4s1-0.7,1.3-1.3l2.2,0.9c-0.6,1-1.3,1.7-2.2,2.2
			c-0.9,0.5-2,0.7-3.3,0.7C247.3,21,246.3,20.8,245.4,20.3z"/>
		<path class="st0" d="M263.1,12.2c-0.3-0.4-0.9-0.6-1.6-0.6c-0.5,0-0.9,0.1-1.3,0.3c-0.4,0.2-0.7,0.5-0.9,0.9
			c-0.2,0.4-0.3,0.8-0.3,1.3v6.7h-2.6v-11h2.6v1.7c0.4-0.7,0.8-1.1,1.4-1.5c0.6-0.3,1.2-0.5,2-0.5c1.2,0,2.2,0.4,2.9,1.1
			c0.7,0.8,1,1.8,1,3.1v7h-2.7v-6.7C263.6,13.3,263.4,12.6,263.1,12.2z"/>
		<path class="st0" d="M274.3,9.8V12h-6.3V9.8H274.3z M272.5,5.9v14.9h-2.6V5.9H272.5z"/>
		<path class="st0" d="M277.9,20.3c-0.9-0.5-1.5-1.2-2-2c-0.5-0.9-0.7-1.9-0.7-3c0-1.2,0.2-2.2,0.7-3c0.5-0.9,1.1-1.5,2-2
			c0.9-0.5,1.9-0.7,3-0.7s2.2,0.2,3,0.7c0.8,0.4,1.4,1.1,1.9,1.9c0.4,0.8,0.7,1.9,0.7,3c0,0.1,0,0.3,0,0.4s0,0.2,0,0.3h-9.7v-1.8
			h7.5l-0.8,1.1c0-0.1,0.1-0.2,0.2-0.4s0.1-0.3,0.1-0.4c0-0.6-0.1-1.1-0.3-1.5c-0.2-0.4-0.6-0.8-1-1c-0.4-0.2-0.9-0.4-1.4-0.4
			c-0.7,0-1.2,0.1-1.7,0.4s-0.8,0.7-1.1,1.2s-0.4,1.2-0.4,2c0,0.8,0.1,1.5,0.4,2c0.2,0.6,0.6,1,1.1,1.3c0.5,0.3,1,0.4,1.7,0.4
			c0.7,0,1.3-0.1,1.8-0.4c0.5-0.3,1-0.7,1.3-1.3l2.2,0.9c-0.6,1-1.3,1.7-2.2,2.2c-0.9,0.5-2,0.7-3.3,0.7
			C279.8,21,278.8,20.8,277.9,20.3z"/>
	</g>
</g>
</svg>
